<svg xmlns="http://www.w3.org/2000/svg" viewBox="0 0 500 500"><g id="background-complete--inject-2"><rect y="382.4" width="500" height="0.25" style="fill:#ebebeb"></rect><rect x="423.9" y="398.49" width="26" height="0.25" style="fill:#ebebeb"></rect><rect x="311" y="401.21" width="45.03" height="0.25" style="fill:#ebebeb"></rect><rect x="362.11" y="389.21" width="60.79" height="0.25" style="fill:#ebebeb"></rect><rect x="52.46" y="390.89" width="19.23" height="0.25" style="fill:#ebebeb"></rect><rect x="80.6" y="390.89" width="55.29" height="0.25" style="fill:#ebebeb"></rect><rect x="169.67" y="395.11" width="74.47" height="0.25" style="fill:#ebebeb"></rect><path d="M237,337.8H43.91a5.71,5.71,0,0,1-5.7-5.71V60.66A5.71,5.71,0,0,1,43.91,55H237a5.71,5.71,0,0,1,5.71,5.71V332.09A5.71,5.71,0,0,1,237,337.8ZM43.91,55.2a5.46,5.46,0,0,0-5.45,5.46V332.09a5.46,5.46,0,0,0,5.45,5.46H237a5.47,5.47,0,0,0,5.46-5.46V60.66A5.47,5.47,0,0,0,237,55.2Z" style="fill:#ebebeb"></path><path d="M453.31,337.8H260.21a5.72,5.72,0,0,1-5.71-5.71V60.66A5.72,5.72,0,0,1,260.21,55h193.1A5.71,5.71,0,0,1,459,60.66V332.09A5.71,5.71,0,0,1,453.31,337.8ZM260.21,55.2a5.47,5.47,0,0,0-5.46,5.46V332.09a5.47,5.47,0,0,0,5.46,5.46h193.1a5.47,5.47,0,0,0,5.46-5.46V60.66a5.47,5.47,0,0,0-5.46-5.46Z" style="fill:#ebebeb"></path><path d="M426,382.4l-6-10.82,21.1-245.37h0a40.85,40.85,0,0,1,6.23,25.7Z" style="fill:#e0e0e0"></path><path d="M65.13,371.58H420l22.35-241.34a5.52,5.52,0,0,0-5.5-6H93.07a5.53,5.53,0,0,0-5.5,5Z" style="fill:#f0f0f0"></path><path d="M415.32,362.44l21.24-228.39a4,4,0,0,0-4-4.35H96.71a4,4,0,0,0-4,3.65L71.49,361.74a4,4,0,0,0,4,4.35H411.34A4,4,0,0,0,415.32,362.44Z" style="fill:#fafafa"></path><path d="M432.58,129.7H96.71a4,4,0,0,0-4,3.65l-1.13,12.17h343.9l1.07-11.47A4,4,0,0,0,432.58,129.7Z" style="fill:#e0e0e0"></path><path d="M113,137.61a4.2,4.2,0,0,1-4.09,3.76,3.38,3.38,0,0,1-3.42-3.76,4.18,4.18,0,0,1,4.08-3.75A3.38,3.38,0,0,1,113,137.61Z" style="fill:#ebebeb"></path><path d="M128.8,137.61a4.2,4.2,0,0,1-4.09,3.76,3.38,3.38,0,0,1-3.42-3.76,4.18,4.18,0,0,1,4.09-3.75A3.38,3.38,0,0,1,128.8,137.61Z" style="fill:#f0f0f0"></path><path d="M144.59,137.61a4.19,4.19,0,0,1-4.09,3.76,3.39,3.39,0,0,1-3.42-3.76,4.18,4.18,0,0,1,4.09-3.75A3.38,3.38,0,0,1,144.59,137.61Z" style="fill:#fff"></path><polygon points="389.5 371.58 420.01 371.58 425.99 382.4 393.29 382.4 389.5 371.58" style="fill:#e0e0e0"></polygon><polygon points="389.5 371.58 37.93 371.58 41.71 382.4 393.29 382.4 389.5 371.58" style="fill:#f5f5f5"></polygon><path d="M248.8,371.58H134l.42,2.44a5.61,5.61,0,0,0,5.53,4.64H243.36a5.6,5.6,0,0,0,5.52-6.57Z" style="fill:#e0e0e0"></path></g><g id="Shadow--inject-2"><ellipse id="path--inject-2" cx="250" cy="416.24" rx="193.89" ry="11.32" style="fill:#f5f5f5"></ellipse></g><g id="Globe--inject-2"><ellipse cx="249.51" cy="250.01" rx="134.31" ry="20.77" transform="translate(-76.68 114.51) rotate(-22.5)" style="fill:#407BFF"></ellipse><ellipse cx="249.51" cy="250.01" rx="134.31" ry="20.77" transform="translate(-76.68 114.51) rotate(-22.5)" style="opacity:0.2"></ellipse><path d="M293.73,154.37c-1.51-.45-3.05-.87-4.57-1.25l.24-1c1.54.38,3.09.81,4.61,1.26Z" style="fill:#407BFF"></path><path d="M282.23,151.58A122.88,122.88,0,0,0,259,149.37v-1a124.7,124.7,0,0,1,23.41,2.22Z" style="fill:#407BFF"></path><path d="M259.1,394.66v-1a121.39,121.39,0,0,0,46.68-9.33l.38.93A122.37,122.37,0,0,1,259.1,394.66Z" style="fill:#407BFF"></path><circle cx="259.05" cy="271.52" r="119.61" transform="translate(-116.12 262.7) rotate(-45)" style="fill:#407BFF"></circle><g style="opacity:0.2"><path d="M347.93,213.6l18.83,5.92a119.56,119.56,0,0,0-94.45-66.89l-5.73,15.29-15.9,5.13S232.93,189.43,233,190.49s-.3,17.44-.3,17.44l-12.24,15.89L210,230.69l-.06,15.54,6.25,15.09,9.39-1.72,8.18-9.88-1.33-6.67,19.31-10.89,14.83,7.93,21.07-8.36,13.6,8.44-17.63,16.67L255.92,264l-19.76,8.19L216.81,289l4.71,21,15.41,10.2,30.23,1.55,17.37,18.43,10.94,19.28L302,367.8,312.57,362l10.73-26.82,7.37-34.32-4-19.91-8.33,5.88-6-12.72-11.95-12.31-4.07-8.06,26.16,12.62L350,262.17l9.53-20.55-9.91-16.09-16,4.08-11.52.09-3.8-7.44,14-1.85Z" style="fill:#fff"></path><path d="M202.87,374.7l-6-18.07-28.24-16.79-9.32-2.34a119.71,119.71,0,0,0,95.84,53.58l-.81-2S223,379,222,379.05,202.87,374.7,202.87,374.7Z" style="fill:#fff"></path><path d="M152.23,262.91l1.15-33,20-12.62,13.53-32.67-8.62-1.43a119.63,119.63,0,0,0-32.6,126.48L165,297.29Z" style="fill:#fff"></path></g><path d="M367.26,220.58c-17.8,14.72-58,36.43-106.53,56.52-47.67,19.74-90.78,32.73-114.1,35.24q.88,2.49,1.91,5a119,119,0,0,0,25.05,37.94c24.47-4.29,63.16-16.48,105.43-34,43-17.82,79.52-36.91,99.65-51.27a118.91,118.91,0,0,0-9.12-44.23C368.83,224,368.07,222.27,367.26,220.58Z" style="opacity:0.2"></path><path d="M373.59,198.62l18.28,44.14c4.39,10.6-47.6,42.2-116.13,70.58s-127.64,42.81-132,32.21l-18.29-44.14c4.39,10.6,63.51-3.82,132-32.21S378,209.21,373.59,198.62Z" style="fill:#407BFF"></path><path d="M373.59,198.62l18.28,44.14c4.39,10.6-47.6,42.2-116.13,70.58s-127.64,42.81-132,32.21l-18.29-44.14c4.39,10.6,63.51-3.82,132-32.21S378,209.21,373.59,198.62Z" style="fill:#fff;opacity:0.5"></path><path d="M184.09,306.46q4.74-1.5,9.47-3,5.08,6.76,10.15,13.53-.92-8.13-1.79-16.31c3.13-1.05,6.24-2.13,9.36-3.21q5.78,6.48,11.51,13-1.62-8-3.2-15.92,4.64-1.66,9.26-3.39,2.28,14.49,4.67,28.92-4.72,1.71-9.49,3.38-6.47-7.32-13-14.62,1,9.21,2,18.39-4.78,1.59-9.59,3.14Q193.82,318.36,184.09,306.46Z" style="fill:#fff"></path><path d="M238.06,287.58q4.63-1.77,9.24-3.61,4.8,6.76,9.57,13.54-.72-8.38-1.41-16.82c3-1.24,6.09-2.51,9.12-3.78q5.48,6.43,10.9,12.87-1.41-8.14-2.79-16.33,4.53-1.95,9-3.95,1.93,14.89,4,29.72-4.62,2-9.25,4-6.12-7.24-12.32-14.51.76,9.49,1.58,19-4.67,1.89-9.35,3.74Q247.27,299.46,238.06,287.58Z" style="fill:#fff"></path><path d="M290.7,265.45c3-1.37,6-2.77,9-4.17q4.51,6.77,9,13.54-.54-8.64-1-17.32c3-1.44,5.93-2.88,8.89-4.35q5.16,6.39,10.27,12.78-1.2-8.37-2.38-16.73,4.41-2.23,8.8-4.52,1.57,15.29,3.24,30.49-4.49,2.29-9,4.55-5.78-7.2-11.61-14.4.54,9.8,1.15,19.53-4.54,2.19-9.1,4.32Q299.38,277.3,290.7,265.45Z" style="fill:#fff"></path></g><g id="Character--inject-2"><path d="M211.09,68.64c-1-3.89-8-7.19-14.48-6.14-7.79,1.27-10.66,7.77-10,16.46.8,11-9.39,10.85-5.7,22.07,4.17-1.54,10.23-4.07,19.91.06,8.55,3.64,18.91.19,22-3.25C212.27,91.62,229.05,67.26,211.09,68.64Z" style="fill:#263238"></path><path d="M224,97.3H224c-6.55-2.1-5.5-8.91-4.5-15.5.73-4.73,1.41-9.19-.82-11.48-1.4-1.43-3.85-1.89-7.51-1.42a.26.26,0,0,1-.29-.21.25.25,0,0,1,.22-.28c3.82-.5,6.42,0,7.94,1.57,2.41,2.45,1.7,7,1,11.9-1,6.38-2,13,4.16,14.94a.25.25,0,0,1-.08.49Z" style="fill:#263238"></path><path d="M176.35,112.79c-1.1.46-2,.79-3,1.11s-2,.62-3,.9a58.3,58.3,0,0,1-6.09,1.32,47,47,0,0,1-6.33.61l-1.63,0-1.65-.07c-.54,0-1.11-.1-1.66-.15l-.84-.09-.59-.09c-.21,0-.44-.09-.66-.14a8.94,8.94,0,0,1-4.68-2.89,11.4,11.4,0,0,1-2.14-4,21.3,21.3,0,0,1-.82-7,44.2,44.2,0,0,1,2.25-12.16,2.49,2.49,0,0,1,4.86.85v.14a66.7,66.7,0,0,0,.36,10.83,15.41,15.41,0,0,0,1.16,4.4,2.51,2.51,0,0,0,.73,1c.2.1.14,0,.23,0h.78c.41,0,.8,0,1.22,0,.82-.05,1.65-.09,2.5-.19,1.69-.19,3.4-.47,5.12-.84s3.45-.81,5.17-1.31c.86-.24,1.72-.49,2.57-.77l2.43-.81.22-.08a5,5,0,0,1,3.48,9.36Z" style="fill:#ff8b7b"></path><path d="M145.91,93.41,143.31,89l6.76-3.5s1.64,5-.17,8.28Z" style="fill:#ff8b7b"></path><polygon points="161.66 323.37 154.65 322.83 155.16 304.54 163.08 304.8 161.66 323.37" style="fill:#ff8b7b"></polygon><path d="M154.1,322.53l8.09-4.16a.62.62,0,0,1,.81.2l4,5.93a1.33,1.33,0,0,1-.53,1.88c-2.84,1.4-4.22,1.3-7.77,3.12-2.19,1.13-7.28,3.77-10.58,4.59s-4.19-2.38-2.88-3c5.86-2.85,6.74-4.9,7.87-7.48A2.16,2.16,0,0,1,154.1,322.53Z" style="fill:#263238"></path><polygon points="163.08 304.81 155.16 304.54 154.88 314.51 162.31 314.93 163.08 304.81" style="opacity:0.2"></polygon><polygon points="139.53 298.76 132.67 300.34 127.71 282.72 135.35 280.61 139.53 298.76" style="fill:#ff8b7b"></polygon><path d="M130.68,296.21l9.08-.47a.62.62,0,0,1,.66.51l1.22,7.06a1.34,1.34,0,0,1-1.26,1.5c-3.16.11-4.36-.75-8.35-.54a62.58,62.58,0,0,1-11.33-.69c-3.27-.59-2.85-3.89-1.39-3.93,6.51-.19,8-1,10-2.87A2.24,2.24,0,0,1,130.68,296.21Z" style="fill:#263238"></path><polygon points="135.35 280.62 127.71 282.73 130.41 292.32 137.63 290.52 135.35 280.62" style="opacity:0.2"></polygon><path d="M185.23,115.46c-5.87,2.66-13.87,2.48-13.87,2.48-2-5.54-4.31-11.21-2.69-14.66,0,0,9.58-3.19,17.58-1.71C190.63,102.37,189.91,113.35,185.23,115.46Z" style="fill:#263238"></path><path d="M172.22,110.33c-1.51,6.78-2.86,18.2-2.41,37.05l32.31,5.06c2.87-15.31,6.18-23.82,12.9-35.18a6.46,6.46,0,0,0-3.22-9.3,115.34,115.34,0,0,0-26.92-6.56A11.61,11.61,0,0,0,172.22,110.33Z" style="fill:#407BFF"></path><path d="M190.46,102.16s-7.57,1.62-5.83,10.62c13.65-.71,20.27-7.12,20.27-7.12Z" style="fill:#263238"></path><path d="M205.33,95.3c-1.26,3.82-1.94,7.94-.43,10.36,0,0-4.08,3.46-17.64,3.79-2-6.31,3.2-7.29,3.2-7.29,5.51,0,6.54-3.35,6.69-9.38l4.54-.57A2.57,2.57,0,0,1,205.33,95.3Z" style="fill:#ff8b7b"></path><path d="M201.7,92.21a2.57,2.57,0,0,1,3.72,2.73,16.81,16.81,0,0,1-9.26,4.14,17.13,17.13,0,0,0,1-6.3Z" style="opacity:0.2"></path><path d="M212.62,80c-1.64,7.89-2.17,11.26-6.74,14.85-6.86,5.41-16.06,1.9-16.77-6.26-.64-7.36,2.16-19,10.31-21.25A10.6,10.6,0,0,1,212.62,80Z" style="fill:#ff8b7b"></path><path d="M209.13,68.05c-7.08.44-6.5,13.73,2.58,18.22C217.37,79.29,213.08,69.47,209.13,68.05Z" style="fill:#263238"></path><path d="M209,67.71c-5.58-3.4-13-3.09-16.59,1.93-5.5,7.63,8.42.59,13.52.92C209.33,73.7,209,67.71,209,67.71Z" style="fill:#263238"></path><path d="M190.13,76.1l0,0a.38.38,0,0,1,0-.54,3.7,3.7,0,0,1,3.33-.93.38.38,0,0,1-.21.74,3,3,0,0,0-2.63.77A.38.38,0,0,1,190.13,76.1Z" style="fill:#263238"></path><path d="M213.77,87.76a6.56,6.56,0,0,1-4,2.82c-2.19.5-3.11-1.47-2.36-3.46.68-1.79,2.63-4.2,4.75-3.81S214.88,86,213.77,87.76Z" style="fill:#ff8b7b"></path><path d="M169.81,147.38c-2.32,4.07-5.13,9.12-7,12.93-12.07,10.2-38.55,36.14-47.3,57.1-2.48,20.42,13.85,72.73,13.85,72.73l7.92-4S132,245,132.07,222.9c16.37-17.73,65.26-46.15,60.76-71.91Z" style="fill:#263238"></path><path d="M176.59,167.76a196.91,196.91,0,0,0-19.31,33.38c12.89-10.63,26.35-22.48,32.46-34.35Z" style="opacity:0.30000000000000004"></path><path d="M179.1,148.83s-15.92,46.45-22.35,79.34c-3.57,24.42-2.75,83.47-2.75,83.47l9.18,1.09s9.36-57.08,9.29-81.92c14.13-31.29,34.15-52.6,29.65-78.37Z" style="fill:#263238"></path><path d="M173.11,167.48a.25.25,0,0,1-.22-.12c-.08-.13-2-3.28-1.69-6.19s3-11.71,3.11-12.08a.26.26,0,0,1,.32-.17.25.25,0,0,1,.16.31c0,.09-2.8,9.18-3.1,12a10.69,10.69,0,0,0,1.35,5.39l5.4-16.59a.25.25,0,0,1,.31-.17.25.25,0,0,1,.16.32l-5.57,17.14a.25.25,0,0,1-.21.17Z" style="fill:#fff;opacity:0.2"></path><path d="M200.49,161a.15.15,0,0,1-.09,0c-8.77-3.49-12.75-9-12.79-9.08a.25.25,0,1,1,.41-.29c0,.06,3.94,5.47,12.56,8.91a.25.25,0,0,1-.09.48Z" style="fill:#fff;opacity:0.2"></path><polygon points="153.12 307.75 153.76 312.81 163.92 313.34 164.53 307.89 153.12 307.75" style="fill:#407BFF"></polygon><polygon points="126.87 286.59 129.01 291.22 138.86 288.64 137.79 283.26 126.87 286.59" style="fill:#407BFF"></polygon><path d="M200.73,80.85c-.09.65-.51,1.13-.93,1.08s-.68-.62-.58-1.27.51-1.13.93-1.08S200.83,80.2,200.73,80.85Z" style="fill:#263238"></path><path d="M193.51,80c-.1.65-.52,1.13-.93,1.08s-.68-.62-.59-1.26.51-1.13.93-1.08S193.6,79.32,193.51,80Z" style="fill:#263238"></path><path d="M193.1,78.76l-1.47-.64S192.24,79.43,193.1,78.76Z" style="fill:#263238"></path><path d="M194.74,81.16A17.85,17.85,0,0,1,191.86,85a2.68,2.68,0,0,0,2.21.72Z" style="fill:#ff5652"></path><path d="M196.05,88.59a.16.16,0,0,1-.09-.18.19.19,0,0,1,.21-.17,5.22,5.22,0,0,0,4.42-1.5.19.19,0,0,1,.27,0,.19.19,0,0,1,0,.27,5.54,5.54,0,0,1-4.76,1.63A.09.09,0,0,1,196.05,88.59Z" style="fill:#263238"></path><path d="M202.51,78.67a.36.36,0,0,1-.12-.15,2.93,2.93,0,0,0-2-1.82.37.37,0,0,1-.3-.44.39.39,0,0,1,.45-.31,3.63,3.63,0,0,1,2.57,2.27.39.39,0,0,1-.21.5A.37.37,0,0,1,202.51,78.67Z" style="fill:#263238"></path><path d="M200.33,79.64,198.86,79S199.47,80.32,200.33,79.64Z" style="fill:#263238"></path><path d="M217.91,116.6c.66,2.45,1.17,4.84,1.72,7.28s1,4.87,1.4,7.34.79,4.95,1.06,7.49a56.38,56.38,0,0,1,.42,8v.26a2.48,2.48,0,0,1,0,.27,49.05,49.05,0,0,1-1.74,7c-.67,2.2-1.45,4.34-2.25,6.45s-1.66,4.19-2.57,6.25S214.07,171,213,173a2.5,2.5,0,0,1-4.65-1.7l2.91-12.84c.49-2.12.92-4.24,1.33-6.33a55.73,55.73,0,0,0,.9-6l0,.53a61.19,61.19,0,0,0-.85-6.65c-.4-2.3-.86-4.63-1.34-7l-1.52-7-1.58-7h0a5,5,0,0,1,9.71-2.4Z" style="fill:#ff8b7b"></path><path d="M204.24,113.92c-1.76,6.21,5.13,19.86,5.13,19.86,3.78-.2,7.73-6.3,12.3-10.2,0,0-3.8-10.55-7.48-14C210.94,106.56,205.63,109,204.24,113.92Z" style="fill:#263238"></path><path d="M142.32,87.22l1,1.75,6.76-3.5L148.9,83.7a2.4,2.4,0,0,0-2.91-.91l-2.49,1A2.41,2.41,0,0,0,142.32,87.22Z" style="fill:#ff8b7b"></path><path d="M209.18,169.11l-5,4.79,5.11,6.7s5.88-3.5,4.54-9.76Z" style="fill:#ff8b7b"></path><path d="M202.68,178.77l1.46-4.87,5.11,6.7L207,183.4a1,1,0,0,1-1.55-.05l-2.62-3.75A1,1,0,0,1,202.68,178.77Z" style="fill:#ff8b7b"></path><path d="M169.76,145c-.95-.24-1.31,2.62-.55,3.41s15,4.49,33.17,5.71c2-.56,1.5-3.59.14-3.78C198,150.65,180.63,147.75,169.76,145Z" style="fill:#407BFF"></path><path d="M169.76,145c-.95-.24-1.31,2.62-.55,3.41s15,4.49,33.17,5.71c2-.56,1.5-3.59.14-3.78C198,150.65,180.63,147.75,169.76,145Z" style="fill:#fff;opacity:0.2"></path><polygon points="159.66 54.47 127.3 78.8 141.15 80.04 135.11 90.99 141.82 94.69 147.87 83.75 156.29 94.82 159.66 54.47" style="fill:#407BFF"></polygon><g style="opacity:0.2"><path d="M144.21,71.85a16.89,16.89,0,0,1-1.29-4.8l-6.49,4.88a17.64,17.64,0,0,0,1.28,4.56,15.24,15.24,0,0,0,1.85,3.4l1.59.15-.58,1.06a16.81,16.81,0,0,1,4.67,7.39l2.62-4.74,4.63,6.07a18,18,0,0,0-1.29-7.46C148.74,76.38,146.68,77.83,144.21,71.85Z" style="fill:#fff"></path><path d="M158.07,73.49c-1.84-2.79-3.54-2.86-5.5-7.6a17.56,17.56,0,0,1-1.32-5.1l-4.54,3.42A17.15,17.15,0,0,0,148,69.15c2.46,6,4.52,4.52,7,10.5,1.84,4.49,1.16,6.43,1.73,9.64Z" style="fill:#fff"></path></g><path d="M150.29,92.86c2.19-2.67,1.21-6.09,1.27-9.34,0-.4-.8-.91-1.62.35a4.88,4.88,0,0,0-.49,3.09c-1.65.73-2.77,2.94-1.5,5.46A5.89,5.89,0,0,0,150.29,92.86Z" style="fill:#ff8b7b"></path><path d="M206.23,70C205.1,71.8,199,73.54,196.28,74c5.61-2.14,7.55-4,7.55-4Z" style="fill:#263238"></path></g></svg>