<svg xmlns="http://www.w3.org/2000/svg" viewBox="0 0 1280 720" width="1280" height="720">
	<style>
		tspan { white-space:pre }
		.shp0 { opacity: 0.102;fill: #6c63ff } 
		.shp1 { fill: #455a64 } 
		.shp2 { fill: #263238 } 
		.shp3 { fill: #b78876 } 
		.shp4 { fill: #407bff } 
		.shp5 { fill: #fafafa } 
		.shp6 { fill: #000000 } 
		.shp7 { fill: #aa6550 } 
		.shp8 { fill: #ffffff } 
		.shp9 { fill: #6c63ff } 
		.shp10 { fill: #444053 } 
		.shp11 { opacity: 0.102;fill: #000000 } 
		.shp12 { fill: #65617d } 
		.shp13 { fill: #9d9cb5 } 
	</style>
	<path id="Layer" class="shp0" d="M805.93 123.22C739.51 120.87 676.25 99.04 615.84 75.15C555.44 51.27 495.61 24.8 430.79 12.14C389.09 4 341.4 2.85 307.81 25.61C275.48 47.56 265.03 85.33 259.42 120.42C255.19 146.81 252.71 174.59 264.29 199.3C272.33 216.46 286.6 230.88 296.46 247.37C330.81 304.54 306.54 375.05 269.32 430.88C251.87 457.08 231.61 482.08 218.14 509.94C204.68 537.8 198.44 569.76 210.22 598.21C221.91 626.42 249.75 647.57 279.9 662.46C341.16 692.71 413.31 701.36 483.72 706.26C639.53 717.12 796.16 712.42 952.38 707.71C1010.2 705.97 1068.26 704.2 1125.13 695.1C1156.72 690.04 1189.32 682.03 1212.26 662.66C1241.36 638.07 1248.58 596.43 1229.08 565.6C1196.35 513.89 1105.93 501.05 1083.03 445.54C1070.45 415 1083.38 380.98 1101.66 352.64C1140.91 291.87 1206.68 238.55 1210.15 169.08C1212.53 121.36 1180.9 73.59 1132.01 51C1080.77 27.25 1009.69 30.26 971.91 69.44C932.97 109.8 864.57 125.29 805.93 123.22Z" />
	<g id="character-2--inject-10">
		<path id="Layer" class="shp1" d="M925.5 514.5L779.42 505.78C778.52 503.71 777.88 502.49 777.88 502.49L738.35 503.39L725.47 502.64C725.47 502.64 725.26 503.01 724.97 503.68L592.22 506.59C565.75 506.59 537.94 522.88 538 543.53C537.74 563.17 547.31 584.46 571.02 583.91L751.91 582.83L932.8 582.83C956.51 583.24 962.73 568.93 962.73 551.97C965.58 520.67 945.72 514.65 925.5 514.5Z" />
		<path id="Layer" class="shp2" d="M587.74 584.08L588.61 584.08L591.17 584.08L601 584.08L637.42 583.85L758.86 583.35L758.37 583.91C758.1 579.92 757.81 575.67 757.55 571.4C756.97 562.67 756.42 553.95 755.89 545.86L756.33 546.33L644.43 534.2L611.24 530.47L602.31 529.43L600.02 529.13L599.23 529.13C599.29 529.13 599.36 529.12 599.43 529.12C599.49 529.12 599.56 529.12 599.62 529.12C599.69 529.12 599.75 529.12 599.82 529.12C599.88 529.12 599.95 529.13 600.02 529.13L602.34 529.34L611.3 530.21L644.49 533.61L756.45 545.42L756.88 545.42L756.88 545.86C757.41 554.03 757.96 562.64 758.54 571.4C758.8 575.67 759.09 579.92 759.35 583.88L759.35 584.43L758.8 584.43L637.36 584.6L600.95 584.6L591.11 584.6L588.55 584.6L587.74 584.08Z" />
		<path id="Layer" class="shp2" d="M624.88 532.1C624.88 532.1 622.96 530.76 619.77 528.84C618.73 528.22 617.67 527.62 616.59 527.06C615.52 526.5 614.42 525.98 613.31 525.49C612.2 525.01 611.07 524.56 609.93 524.15C608.79 523.74 607.64 523.36 606.47 523.03C605.3 522.7 604.13 522.41 602.94 522.16C601.75 521.91 600.56 521.7 599.36 521.53C598.15 521.35 596.95 521.22 595.74 521.13C594.53 521.03 593.32 520.98 592.1 520.96C588.38 520.96 586.05 521.19 586.02 520.96C586.15 520.92 586.28 520.87 586.42 520.83C586.55 520.8 586.68 520.76 586.81 520.73C586.95 520.7 587.08 520.67 587.22 520.64C587.35 520.62 587.49 520.6 587.62 520.58C587.99 520.53 588.37 520.48 588.74 520.43C589.11 520.39 589.48 520.35 589.86 520.32C590.23 520.28 590.61 520.25 590.98 520.23C591.35 520.21 591.73 520.19 592.1 520.18C593.33 520.14 594.56 520.15 595.78 520.21C597.01 520.27 598.23 520.38 599.45 520.53C600.66 520.69 601.87 520.89 603.07 521.13C604.28 521.38 605.47 521.67 606.65 522.01C607.84 522.34 609.01 522.72 610.17 523.15C611.33 523.58 612.47 524.05 613.59 524.56C614.72 525.08 615.82 525.64 616.9 526.24C617.97 526.84 619.03 527.49 620.06 528.17C620.37 528.38 620.68 528.59 620.99 528.8C621.29 529.01 621.6 529.24 621.9 529.46C622.19 529.69 622.49 529.92 622.78 530.15C623.07 530.39 623.35 530.63 623.63 530.88C624.51 531.64 624.94 531.96 624.88 532.1Z" />
		<path id="Layer" class="shp2" d="M914.19 523.55C914.19 523.84 885.51 530.85 849.96 539.26C814.42 547.66 785.56 554.27 785.48 554C785.39 553.74 814.18 546.67 849.73 538.27C885.27 529.86 914.13 523.23 914.19 523.55Z" />
		<path id="Layer" class="shp2" d="M889.96 520.82C888.97 521.16 887.99 521.53 887.03 521.93C886.06 522.33 885.11 522.75 884.16 523.21C883.22 523.66 882.29 524.14 881.37 524.64C880.46 525.14 879.56 525.67 878.67 526.23C877.84 526.86 877.02 527.52 876.23 528.2C875.43 528.87 874.65 529.57 873.9 530.3C873.14 531.02 872.4 531.76 871.68 532.52C870.97 533.28 870.27 534.06 869.6 534.86C869.71 534.57 869.83 534.28 869.97 534C870.11 533.72 870.26 533.44 870.42 533.17C870.58 532.91 870.76 532.65 870.95 532.39C871.13 532.14 871.33 531.9 871.54 531.67C872.02 531.07 872.51 530.5 873.02 529.94C873.54 529.38 874.07 528.85 874.62 528.33C875.17 527.81 875.74 527.31 876.33 526.83C876.92 526.36 877.53 525.9 878.15 525.47C878.77 525.05 879.42 524.64 880.08 524.27C880.73 523.89 881.4 523.54 882.09 523.21C882.77 522.89 883.47 522.59 884.17 522.31C884.88 522.04 885.6 521.79 886.32 521.57C886.61 521.45 886.9 521.35 887.2 521.25C887.5 521.16 887.8 521.08 888.1 521.02C888.41 520.96 888.71 520.91 889.02 520.87C889.33 520.84 889.64 520.82 889.96 520.82Z" />
		<path id="Layer" class="shp3" d="M757.12 549.7L784.37 553.42L784.43 583.03L759.38 582.48L757.12 549.7L757.12 549.7Z" />
		<path id="Layer" class="shp4" d="M784.37 553.42L796.62 553.42C797.21 553.42 797.8 553.46 798.38 553.53C798.97 553.61 799.55 553.72 800.12 553.88C800.69 554.03 801.26 554.22 801.8 554.44C802.35 554.67 802.88 554.93 803.39 555.23L809.88 558.95C810.79 559.45 811.71 559.94 812.64 560.42C813.57 560.89 814.5 561.35 815.44 561.8C816.38 562.24 817.33 562.68 818.28 563.09C819.24 563.51 820.2 563.91 821.17 564.3C828.64 566.66 841.18 569.86 843.82 571.89C851.36 577.71 849.09 584.55 844.96 585.27C841.32 585.91 784.43 583.06 784.43 583.06L784.37 553.42Z" />
		<path id="Layer" class="shp2" d="M804.56 580.53C804.31 579.92 804.1 579.3 803.92 578.68C803.74 578.05 803.6 577.41 803.48 576.76C803.37 576.12 803.29 575.47 803.25 574.81C803.2 574.16 803.19 573.51 803.22 572.85C803.16 572.2 803.13 571.54 803.13 570.89C803.14 570.23 803.18 569.58 803.25 568.93C803.32 568.28 803.42 567.63 803.56 566.99C803.69 566.34 803.86 565.71 804.06 565.09C804.11 565.73 804.15 566.37 804.19 567.02C804.22 567.66 804.24 568.31 804.26 568.95C804.27 569.6 804.28 570.24 804.27 570.89C804.27 571.53 804.26 572.18 804.24 572.82C804.3 573.46 804.35 574.1 804.39 574.75C804.44 575.39 804.47 576.03 804.5 576.67C804.53 577.32 804.55 577.96 804.55 578.6C804.56 579.25 804.56 579.89 804.56 580.53Z" />
		<path id="Layer" class="shp2" d="M810.37 580.36C810.25 579.78 810.15 579.19 810.06 578.61C809.98 578.02 809.92 577.43 809.88 576.84C809.84 576.25 809.83 575.66 809.83 575.06C809.83 574.47 809.86 573.88 809.91 573.29C809.87 572.7 809.85 572.11 809.85 571.51C809.86 570.92 809.88 570.33 809.92 569.74C809.97 569.15 810.03 568.56 810.12 567.97C810.2 567.38 810.31 566.8 810.43 566.22C810.56 566.8 810.66 567.38 810.74 567.97C810.83 568.56 810.89 569.15 810.93 569.74C810.97 570.33 810.99 570.92 810.99 571.51C810.99 572.11 810.97 572.7 810.93 573.29C810.96 573.88 810.98 574.47 810.97 575.07C810.96 575.66 810.94 576.25 810.89 576.84C810.85 577.43 810.78 578.02 810.69 578.61C810.61 579.19 810.5 579.78 810.37 580.36Z" />
		<path id="Layer" class="shp2" d="M817.24 581.4C816.97 580.21 816.74 579.02 816.56 577.81C816.37 576.6 816.23 575.39 816.13 574.17C816.04 572.96 815.98 571.74 815.97 570.52C815.96 569.3 816 568.08 816.07 566.86C816.24 567.45 816.39 568.04 816.52 568.64C816.65 569.24 816.76 569.84 816.85 570.45C816.94 571.05 817.01 571.66 817.06 572.27C817.11 572.88 817.14 573.49 817.15 574.1C817.24 574.71 817.31 575.31 817.36 575.92C817.41 576.53 817.44 577.14 817.45 577.75C817.45 578.36 817.44 578.97 817.4 579.58C817.37 580.19 817.31 580.8 817.24 581.4Z" />
		<path id="Layer" class="shp2" d="M799.23 572.68C799.02 572.64 798.8 572.6 798.59 572.55C798.37 572.5 798.16 572.45 797.95 572.38C797.74 572.31 797.54 572.24 797.33 572.16C797.13 572.08 796.93 571.99 796.73 571.89C796.18 571.66 795.63 571.41 795.09 571.14C794.55 570.87 794.03 570.57 793.51 570.26C793 569.95 792.5 569.61 792.01 569.26C791.53 568.9 791.05 568.53 790.59 568.14C790.01 567.62 789.43 567.09 788.82 566.48C788.66 566.33 788.5 566.16 788.35 565.99C788.2 565.82 788.07 565.64 787.94 565.46C787.81 565.27 787.69 565.08 787.58 564.88C787.47 564.68 787.37 564.48 787.28 564.27C787.17 564.04 787.1 563.79 787.06 563.54C787.02 563.29 787.02 563.03 787.05 562.77C787.07 562.52 787.14 562.27 787.23 562.03C787.32 561.79 787.45 561.57 787.6 561.36C787.69 561.25 787.79 561.14 787.9 561.04C788.02 560.94 788.14 560.86 788.27 560.79C788.4 560.71 788.53 560.66 788.68 560.61C788.82 560.57 788.96 560.54 789.11 560.52C789.25 560.5 789.39 560.5 789.53 560.5C789.67 560.5 789.81 560.5 789.95 560.52C790.09 560.53 790.23 560.56 790.36 560.58C790.5 560.61 790.64 560.65 790.77 560.69C792.91 561.46 794.79 562.8 796.2 564.58C797.62 566.35 798.51 568.48 798.79 570.73C799.06 572.99 798.7 575.27 797.74 577.33C796.79 579.39 795.28 581.14 793.39 582.39C793.17 582.55 792.94 582.69 792.71 582.82C792.48 582.95 792.24 583.07 792 583.18C791.75 583.29 791.5 583.38 791.25 583.47C791 583.55 790.74 583.62 790.48 583.67C790.35 583.71 790.21 583.73 790.08 583.75C789.95 583.76 789.81 583.77 789.68 583.77C789.54 583.77 789.41 583.76 789.28 583.75C789.14 583.73 789.01 583.71 788.88 583.67C788.74 583.63 788.62 583.57 788.49 583.5C788.37 583.43 788.25 583.35 788.15 583.26C788.04 583.17 787.94 583.06 787.86 582.95C787.77 582.84 787.69 582.72 787.63 582.6C787.54 582.36 787.47 582.11 787.44 581.86C787.41 581.61 787.41 581.35 787.44 581.1C787.47 580.85 787.53 580.6 787.62 580.36C787.71 580.12 787.83 579.9 787.98 579.69C788.09 579.51 788.2 579.34 788.32 579.17C788.44 579 788.57 578.84 788.7 578.68C788.83 578.52 788.97 578.36 789.11 578.21C789.25 578.06 789.4 577.91 789.55 577.77C789.98 577.35 790.43 576.95 790.91 576.57C791.38 576.19 791.87 575.84 792.37 575.51C792.88 575.17 793.4 574.87 793.93 574.58C794.46 574.3 795.01 574.04 795.57 573.81C795.77 573.72 795.97 573.64 796.18 573.57C796.39 573.49 796.6 573.42 796.81 573.36C797.02 573.3 797.23 573.25 797.45 573.2C797.66 573.16 797.88 573.12 798.1 573.09C798.32 573.05 797.23 573.46 795.74 574.19C795.21 574.45 794.7 574.72 794.19 575.02C793.69 575.33 793.2 575.65 792.73 575.99C792.25 576.34 791.79 576.7 791.35 577.08C790.9 577.47 790.48 577.87 790.07 578.29C789.93 578.42 789.8 578.56 789.68 578.7C789.55 578.84 789.43 578.98 789.31 579.13C789.19 579.28 789.08 579.43 788.98 579.59C788.87 579.74 788.77 579.9 788.67 580.07C788.58 580.22 788.49 580.38 788.43 580.55C788.37 580.71 788.32 580.89 788.3 581.07C788.27 581.24 788.27 581.42 788.28 581.6C788.3 581.78 788.33 581.96 788.38 582.13C788.49 582.28 788.61 582.41 788.76 582.52C788.9 582.63 789.07 582.71 789.24 582.77C789.41 582.83 789.59 582.86 789.77 582.86C789.95 582.86 790.13 582.83 790.3 582.77C790.53 582.72 790.74 582.66 790.96 582.58C791.17 582.51 791.38 582.42 791.59 582.32C791.79 582.23 791.99 582.12 792.19 582C792.38 581.88 792.57 581.75 792.75 581.61C794.48 580.45 795.86 578.83 796.73 576.93C797.6 575.04 797.93 572.94 797.68 570.87C797.43 568.8 796.62 566.84 795.33 565.2C794.04 563.57 792.32 562.32 790.36 561.6C790.19 561.51 790 561.45 789.81 561.42C789.61 561.38 789.41 561.38 789.22 561.41C789.03 561.44 788.84 561.5 788.66 561.58C788.49 561.67 788.32 561.78 788.18 561.92C788.07 562.07 787.98 562.24 787.91 562.42C787.84 562.6 787.8 562.79 787.78 562.98C787.76 563.17 787.76 563.36 787.79 563.55C787.82 563.74 787.87 563.92 787.95 564.1C788.13 564.44 788.33 564.78 788.54 565.1C788.75 565.43 788.98 565.74 789.23 566.04C789.47 566.34 789.73 566.64 790 566.91C790.27 567.19 790.56 567.45 790.86 567.7C791.49 568.22 792.14 568.71 792.81 569.18C793.48 569.64 794.16 570.08 794.86 570.5C795.56 570.92 796.28 571.31 797.01 571.67C797.74 572.03 798.48 572.37 799.23 572.68L799.23 572.68Z" />
		<path id="Layer" class="shp2" d="M844.96 585.24C845.11 585.11 845.25 584.97 845.39 584.83C845.53 584.69 845.66 584.54 845.78 584.38C845.91 584.22 846.03 584.06 846.14 583.9C846.25 583.73 846.35 583.56 846.44 583.38C846.62 582.87 846.73 582.35 846.79 581.81C846.84 581.28 846.83 580.74 846.76 580.2C846.69 579.67 846.56 579.15 846.37 578.64C846.18 578.14 845.93 577.66 845.63 577.22C845.19 576.53 844.7 575.88 844.15 575.28C843.6 574.68 843 574.12 842.35 573.63C841.7 573.13 841.02 572.7 840.29 572.32C839.57 571.95 838.81 571.64 838.04 571.4C834.57 570.18 830.44 569.59 826.4 568.29C824.61 567.76 822.84 567.17 821.09 566.52C819.34 565.88 817.61 565.17 815.91 564.4C814.2 563.64 812.53 562.81 810.88 561.93C809.24 561.05 807.62 560.11 806.04 559.12C805.56 558.83 805.09 558.52 804.62 558.21C804.15 557.9 803.68 557.59 803.22 557.26C802.76 556.94 802.31 556.61 801.86 556.28C801.4 555.94 800.96 555.6 800.51 555.25C800.34 555.14 800.18 555.01 800.01 554.89C799.85 554.76 799.69 554.63 799.54 554.49C799.38 554.36 799.23 554.22 799.08 554.07C798.93 553.93 798.79 553.78 798.65 553.63C798.84 553.72 799.02 553.81 799.2 553.91C799.38 554.01 799.56 554.12 799.73 554.22C799.91 554.33 800.08 554.45 800.25 554.57C800.42 554.68 800.58 554.81 800.75 554.93C802.05 555.81 803.97 557.09 806.42 558.51C808 559.44 809.62 560.32 811.26 561.15C812.89 561.98 814.56 562.76 816.25 563.49C817.93 564.22 819.64 564.9 821.37 565.52C823.1 566.15 824.84 566.72 826.6 567.24C830.71 568.49 834.78 569.1 838.38 570.44C839.2 570.7 840 571.03 840.75 571.43C841.51 571.83 842.23 572.3 842.91 572.83C843.58 573.36 844.21 573.95 844.78 574.59C845.34 575.24 845.85 575.93 846.3 576.66C846.6 577.16 846.85 577.69 847.03 578.24C847.22 578.79 847.33 579.36 847.38 579.94C847.42 580.52 847.4 581.11 847.3 581.68C847.21 582.26 847.05 582.82 846.82 583.35C846.74 583.49 846.66 583.63 846.57 583.75C846.48 583.88 846.38 584.01 846.28 584.12C846.17 584.24 846.06 584.35 845.94 584.46C845.82 584.56 845.7 584.66 845.57 584.75C845.19 585.19 844.99 585.27 844.96 585.24Z" />
		<path id="Layer" class="shp2" d="M726.54 193.96C718.11 197.25 708.51 210.11 706.82 219.01C705.31 226.83 707.35 234.86 708.39 242.8C709.44 250.74 709.21 259.55 704.09 265.69C700.89 269.5 696.24 271.71 692.45 274.97C689.74 277.33 687.52 280.2 685.92 283.42C684.31 286.64 683.36 290.14 683.12 293.73C682.88 297.31 683.35 300.91 684.5 304.32C685.65 307.72 687.46 310.87 689.84 313.57C688.3 314 686.84 314.69 685.53 315.61C684.22 316.52 683.07 317.65 682.13 318.94C681.2 320.24 680.48 321.68 680.02 323.21C679.56 324.74 679.36 326.34 679.42 327.94C679.55 329.54 679.86 331.11 680.33 332.64C680.81 334.17 681.46 335.64 682.27 337.03C683.07 338.41 684.03 339.7 685.12 340.88C686.21 342.05 687.43 343.09 688.76 343.99C690.1 344.88 691.48 345.69 692.91 346.42C694.34 347.16 695.8 347.81 697.3 348.39C698.8 348.96 700.33 349.45 701.88 349.86C703.43 350.27 705 350.59 706.59 350.83C708.24 351.23 709.91 351.52 711.59 351.7C713.28 351.88 714.97 351.94 716.66 351.9C718.36 351.85 720.04 351.69 721.72 351.42C723.39 351.15 725.04 350.77 726.66 350.28C734.14 347.54 739.66 341.35 745.65 336.11C752.96 329.68 761.48 324.27 766.71 316.1C772.82 306.56 773.64 294.63 773.58 283.29C773.56 277.5 773.36 271.7 772.98 265.92C772.6 260.14 772.05 254.37 771.32 248.63C770.59 242.88 769.69 237.16 768.61 231.46C767.53 225.77 766.28 220.11 764.85 214.5" />
		<path id="Layer" class="shp3" d="M835.07 353.94L881.61 434.28C883.01 436.71 884.11 439.31 884.88 442.01C885.65 444.72 886.09 447.5 886.18 450.31C886.26 453.12 886.01 455.93 885.41 458.67C884.81 461.42 883.88 464.08 882.63 466.6L882.63 466.6C881.19 469.5 879.34 472.18 877.14 474.57C874.95 476.95 872.42 479.01 869.65 480.68C866.87 482.35 863.87 483.62 860.73 484.45C857.6 485.27 854.36 485.65 851.12 485.56L780.15 483.76L778.2 457.96L840.51 445.8L798.19 373.08L835.07 353.94Z" />
		<path id="Layer" class="shp3" d="M663.08 492.11L728.38 509.21L729.74 489.63L669.62 454.87L713.25 373.2L676.4 354.52L630.41 435.1L630.41 435.1C627.82 439.98 626.33 445.38 626.06 450.91C625.78 456.43 626.72 461.95 628.81 467.08C630.9 472.2 634.08 476.8 638.15 480.56C642.21 484.32 647.04 487.14 652.31 488.82L663.08 492.11Z" />
		<path id="Layer" class="shp4" d="M815.58 405.66L860.14 382.04C858.76 379.26 857.33 376.52 855.83 373.8C854.34 371.08 852.79 368.39 851.19 365.74C849.59 363.08 847.94 360.46 846.23 357.87C844.52 355.29 842.76 352.73 840.94 350.22C837.34 345.41 833.3 340.95 828.88 336.88C824.46 332.82 819.67 329.17 814.58 325.98C809.49 322.79 804.11 320.08 798.52 317.87C792.93 315.67 787.15 313.99 781.26 312.84L781.26 312.84L729.95 313.57C728.39 313.71 726.83 313.91 725.28 314.16C723.73 314.41 722.19 314.72 720.67 315.08C719.14 315.43 717.62 315.84 716.13 316.31C714.63 316.77 713.14 317.28 711.68 317.85L711.68 317.64C683.84 323.87 653.1 384.69 653.1 384.69L693.82 405.95L694.72 412.32C695.03 414.42 695.5 416.49 696.11 418.52C696.72 420.56 697.48 422.54 698.38 424.46C699.28 426.38 700.32 428.23 701.49 430C702.66 431.77 703.95 433.46 705.37 435.04L693.73 512.82L825.47 515.2L808.51 459.56L815.58 405.66Z" />
		<path id="Layer" class="shp2" d="M706.53 435.47C706.36 435.37 706.19 435.26 706.02 435.14C705.85 435.03 705.68 434.91 705.52 434.78C705.36 434.66 705.2 434.53 705.04 434.4C704.89 434.27 704.73 434.13 704.58 433.99C704.16 433.62 703.75 433.24 703.35 432.84C702.94 432.45 702.55 432.04 702.18 431.63C701.8 431.21 701.44 430.78 701.09 430.34C700.74 429.9 700.4 429.45 700.08 428.99C699.03 427.45 698.11 425.82 697.34 424.13C696.57 422.44 695.95 420.68 695.47 418.88C695 417.08 694.68 415.24 694.52 413.39C694.36 411.53 694.36 409.67 694.52 407.81C694.67 406.81 694.85 405.8 695.05 404.81C695.25 403.81 695.47 402.82 695.71 401.83C695.95 400.84 696.22 399.86 696.5 398.88C696.79 397.91 697.1 396.94 697.43 395.97C698.59 392.42 699.78 389.28 700.83 386.67C701.88 384.05 702.75 381.95 703.39 380.5C703.47 380.31 703.55 380.12 703.63 379.93C703.72 379.75 703.81 379.56 703.9 379.38C704 379.2 704.1 379.02 704.2 378.84C704.3 378.66 704.41 378.49 704.53 378.32C704.48 378.52 704.43 378.71 704.37 378.91C704.32 379.11 704.26 379.3 704.2 379.5C704.13 379.69 704.07 379.88 703.99 380.07C703.92 380.27 703.85 380.46 703.77 380.64L701.5 386.93C700.54 389.57 699.44 392.74 698.3 396.26C697.98 397.21 697.68 398.17 697.4 399.13C697.12 400.09 696.86 401.05 696.62 402.02C696.37 402.99 696.15 403.97 695.95 404.95C695.74 405.93 695.56 406.91 695.39 407.9C695.31 408.89 695.28 409.88 695.28 410.87C695.29 411.86 695.34 412.85 695.44 413.84C695.53 414.83 695.67 415.81 695.85 416.78C696.03 417.76 696.26 418.72 696.53 419.68C696.75 420.45 696.99 421.22 697.27 421.97C697.55 422.73 697.86 423.47 698.19 424.2C698.53 424.93 698.89 425.65 699.29 426.35C699.68 427.05 700.1 427.74 700.54 428.41C700.99 429.03 701.46 429.65 701.93 430.26C702.41 430.87 702.9 431.47 703.4 432.06C703.89 432.65 704.41 433.23 704.93 433.8C705.45 434.37 705.99 434.93 706.53 435.47Z" />
		<path id="Layer" class="shp5" d="M710.43 367.67C709.76 367.08 709.11 366.47 708.49 365.83C707.86 365.2 707.26 364.54 706.68 363.86C706.1 363.18 705.55 362.48 705.02 361.76C704.49 361.05 703.98 360.31 703.51 359.56C702.92 358.88 702.35 358.19 701.81 357.47C701.28 356.76 700.76 356.02 700.28 355.27C699.79 354.52 699.33 353.75 698.9 352.97C698.47 352.18 698.06 351.38 697.69 350.57C698.94 351.83 700.14 353.14 701.3 354.49C702.46 355.84 703.56 357.23 704.62 358.66C705.68 360.09 706.68 361.56 707.63 363.06C708.58 364.57 709.47 366.1 710.31 367.67L710.43 367.67Z" />
		<path id="Layer" class="shp5" d="M731.78 331.69C731.21 332.22 730.62 332.73 730 333.21C729.39 333.69 728.76 334.15 728.12 334.58C727.47 335.02 726.8 335.43 726.12 335.81C725.44 336.19 724.75 336.54 724.04 336.87C723.4 337.3 722.73 337.71 722.05 338.09C721.37 338.47 720.68 338.82 719.97 339.14C719.26 339.46 718.54 339.75 717.81 340.01C717.07 340.28 716.33 340.51 715.58 340.71C716.15 340.18 716.74 339.67 717.35 339.19C717.97 338.71 718.6 338.25 719.24 337.81C719.89 337.38 720.55 336.97 721.23 336.59C721.91 336.21 722.61 335.86 723.32 335.53C723.96 335.1 724.63 334.7 725.31 334.32C725.99 333.94 726.69 333.59 727.39 333.27C728.1 332.95 728.82 332.66 729.56 332.39C730.29 332.13 731.03 331.89 731.78 331.69L731.78 331.69Z" />
		<path id="Layer" class="shp5" d="M680.32 382.94C680.2 382.22 680.11 381.5 680.04 380.77C679.98 380.04 679.95 379.31 679.95 378.58C679.95 377.85 679.98 377.12 680.04 376.39C680.11 375.66 680.2 374.94 680.32 374.22C680.31 373.49 680.33 372.77 680.39 372.05C680.44 371.33 680.53 370.62 680.65 369.9C680.77 369.19 680.92 368.49 681.1 367.79C681.29 367.09 681.5 366.4 681.75 365.72C681.88 366.44 681.97 367.17 682.03 367.9C682.1 368.62 682.13 369.35 682.13 370.09C682.13 370.82 682.1 371.55 682.03 372.28C681.97 373 681.88 373.73 681.75 374.45C681.76 375.17 681.74 375.89 681.68 376.61C681.63 377.33 681.54 378.05 681.42 378.76C681.3 379.47 681.15 380.18 680.97 380.88C680.78 381.57 680.57 382.26 680.32 382.94Z" />
		<path id="Layer" class="shp5" d="M727.74 399.75C727.19 400.27 726.63 400.76 726.05 401.22C725.47 401.69 724.87 402.13 724.25 402.54C723.63 402.96 722.99 403.35 722.34 403.72C721.69 404.08 721.03 404.42 720.35 404.73C719.73 405.15 719.09 405.54 718.44 405.9C717.79 406.27 717.12 406.6 716.45 406.91C715.77 407.22 715.07 407.5 714.37 407.76C713.67 408.01 712.95 408.23 712.23 408.42C712.77 407.9 713.33 407.41 713.91 406.94C714.49 406.46 715.09 406.02 715.71 405.6C716.33 405.18 716.97 404.79 717.62 404.42C718.27 404.06 718.94 403.73 719.62 403.42C720.24 403 720.88 402.61 721.53 402.25C722.18 401.88 722.84 401.55 723.52 401.24C724.2 400.94 724.9 400.66 725.6 400.41C726.3 400.16 727.02 399.94 727.74 399.75L727.74 399.75Z" />
		<path id="Layer" class="shp5" d="M743.24 364.27C742.91 364.91 742.55 365.54 742.17 366.16C741.79 366.77 741.38 367.37 740.95 367.95C740.52 368.54 740.06 369.1 739.59 369.65C739.11 370.19 738.61 370.72 738.09 371.22C734.95 374.77 732.13 377.44 731.81 377.04C732.14 376.39 732.5 375.76 732.88 375.15C733.26 374.53 733.67 373.93 734.1 373.35C734.53 372.77 734.99 372.21 735.46 371.66C735.94 371.12 736.44 370.59 736.96 370.09C740.1 366.65 742.92 363.98 743.24 364.27Z" />
		<path id="Layer" class="shp5" d="M774.04 374.89C773.5 374.45 772.98 373.98 772.48 373.5C771.98 373.01 771.51 372.5 771.05 371.97C770.6 371.44 770.17 370.89 769.77 370.33C769.36 369.76 768.99 369.17 768.63 368.57C768.18 368.05 767.76 367.5 767.36 366.93C766.96 366.37 766.59 365.78 766.24 365.18C765.9 364.58 765.58 363.97 765.29 363.34C765 362.71 764.74 362.07 764.5 361.42C765.04 361.86 765.55 362.32 766.05 362.81C766.54 363.29 767.02 363.8 767.47 364.32C767.92 364.85 768.35 365.4 768.75 365.96C769.15 366.52 769.53 367.1 769.88 367.7C770.33 368.23 770.75 368.79 771.15 369.36C771.55 369.93 771.92 370.51 772.27 371.11C772.62 371.72 772.94 372.33 773.24 372.96C773.53 373.59 773.8 374.23 774.04 374.89L774.04 374.89Z" />
		<path id="Layer" class="shp5" d="M757.87 408.16C757.45 406.5 757.1 404.83 756.81 403.14C756.51 401.45 756.29 399.76 756.12 398.05C755.95 396.35 755.85 394.64 755.81 392.93C755.78 391.22 755.8 389.51 755.89 387.8C756.16 388.61 756.39 389.43 756.6 390.26C756.81 391.09 756.98 391.93 757.13 392.77C757.27 393.61 757.39 394.46 757.47 395.31C757.56 396.16 757.61 397.01 757.64 397.86C757.78 398.71 757.9 399.57 757.98 400.42C758.07 401.28 758.12 402.14 758.14 403C758.16 403.87 758.14 404.73 758.1 405.59C758.06 406.45 757.98 407.31 757.87 408.16L757.87 408.16Z" />
		<path id="Layer" class="shp5" d="M745.33 436.96C744.8 436.41 744.29 435.84 743.81 435.25C743.33 434.66 742.87 434.05 742.43 433.42C742 432.79 741.59 432.15 741.21 431.48C740.83 430.82 740.48 430.14 740.16 429.45C739.73 428.82 739.33 428.17 738.95 427.51C738.58 426.84 738.23 426.17 737.91 425.47C737.59 424.78 737.29 424.08 737.03 423.37C736.76 422.65 736.53 421.93 736.32 421.19C736.86 421.74 737.38 422.3 737.88 422.89C738.37 423.48 738.84 424.09 739.29 424.72C739.73 425.35 740.14 425.99 740.53 426.66C740.92 427.32 741.28 428 741.61 428.7C742.03 429.33 742.42 429.98 742.79 430.64C743.15 431.31 743.49 431.99 743.8 432.68C744.12 433.37 744.4 434.07 744.65 434.79C744.91 435.5 745.14 436.23 745.33 436.96L745.33 436.96Z" />
		<path id="Layer" class="shp5" d="M786.29 420.35C785.54 421.72 784.74 423.07 783.89 424.38C783.03 425.69 782.13 426.96 781.17 428.2C780.21 429.44 779.21 430.63 778.15 431.79C777.1 432.94 776 434.06 774.86 435.12C775.6 433.75 776.41 432.41 777.26 431.1C778.11 429.79 779.02 428.51 779.98 427.27C780.93 426.04 781.94 424.84 782.99 423.68C784.05 422.53 785.15 421.42 786.29 420.35L786.29 420.35Z" />
		<path id="Layer" class="shp5" d="M803.83 403.65C802.96 403.4 802.11 403.1 801.28 402.75C800.44 402.4 799.63 402.01 798.84 401.57C798.05 401.13 797.29 400.65 796.55 400.13C795.81 399.61 795.11 399.05 794.43 398.45C793.69 397.94 792.97 397.39 792.29 396.8C791.6 396.22 790.95 395.59 790.34 394.93C789.72 394.27 789.15 393.58 788.61 392.85C788.08 392.13 787.58 391.37 787.13 390.59C787.85 391.11 788.56 391.64 789.27 392.17C789.97 392.71 790.67 393.25 791.35 393.81C792.04 394.37 792.72 394.93 793.4 395.5C794.07 396.08 794.74 396.66 795.39 397.25C796.12 397.75 796.85 398.25 797.57 398.77C798.28 399.28 798.99 399.81 799.7 400.34C800.4 400.87 801.1 401.42 801.79 401.97C802.47 402.52 803.16 403.08 803.83 403.65L803.83 403.65Z" />
		<path id="Layer" class="shp5" d="M832.22 379.89C831.39 380.1 830.56 380.28 829.72 380.43C828.89 380.58 828.04 380.69 827.2 380.78C826.35 380.86 825.5 380.92 824.65 380.94C823.8 380.96 822.95 380.95 822.1 380.91C821.25 380.99 820.4 381.05 819.55 381.07C818.7 381.09 817.85 381.08 817 381.03C816.15 380.99 815.3 380.91 814.46 380.81C813.62 380.7 812.78 380.56 811.94 380.38C812.77 380.18 813.6 380.01 814.44 379.86C815.28 379.72 816.12 379.61 816.97 379.53C817.82 379.44 818.67 379.39 819.52 379.37C820.37 379.35 821.22 379.36 822.07 379.39C822.91 379.31 823.76 379.26 824.61 379.24C825.46 379.22 826.31 379.23 827.16 379.27C828.01 379.31 828.86 379.38 829.7 379.49C830.54 379.59 831.38 379.72 832.22 379.89Z" />
		<g id="Layer" style="opacity: 0.302">
			<path id="Layer" class="shp6" d="M839.34 343.38C842.74 348.8 844.03 355.27 842.98 361.58C841.93 367.88 838.6 373.59 833.64 377.61C828.67 381.64 822.41 383.71 816.02 383.43C809.63 383.15 803.57 380.55 798.97 376.11C798.64 375.72 798.3 375.35 797.94 375C797.59 374.64 797.21 374.3 796.83 373.97C796.45 373.65 796.05 373.34 795.64 373.04C795.23 372.75 794.81 372.47 794.38 372.21C793.93 372.05 793.47 371.9 793.01 371.77C792.56 371.64 792.09 371.52 791.63 371.43C791.16 371.33 790.69 371.25 790.22 371.18C789.74 371.12 789.27 371.07 788.79 371.05C785.4 370.5 782.2 369.1 779.5 366.98C776.8 364.86 774.69 362.08 773.36 358.91C772.03 355.75 771.52 352.29 771.9 348.88C772.27 345.46 773.51 342.2 775.5 339.4L839.34 343.38Z" />
		</g>
		<path id="Layer" class="shp2" d="M687.04 531.61L679.39 444.93L839.87 444.49L829.45 532.31L687.04 531.61L687.04 531.61Z" />
		<path id="Layer" class="shp5" d="M769.97 490.91C770 495.06 767.52 498.81 763.7 500.41C759.88 502.02 755.47 501.16 752.52 498.24C749.58 495.33 748.69 490.92 750.26 487.09C751.83 483.25 755.56 480.75 759.7 480.73C761.05 480.73 762.38 480.99 763.62 481.5C764.86 482.01 765.99 482.76 766.94 483.7C767.9 484.65 768.65 485.77 769.17 487.01C769.69 488.24 769.96 489.57 769.97 490.91Z" />
		<path id="Layer" class="shp3" d="M762.32 343.62C765.54 343.55 768.72 342.86 771.67 341.58C774.63 340.31 777.32 338.48 779.58 336.19C781.85 333.91 783.65 331.2 784.9 328.23C786.14 325.26 786.8 322.08 786.84 318.86L788.01 219.21L788.01 219.21C788.02 218.23 787.86 217.25 787.52 216.32C787.18 215.4 786.67 214.55 786.02 213.81C785.37 213.07 784.58 212.46 783.71 212C782.84 211.55 781.89 211.26 780.91 211.15L738.7 200.51C725.24 199.08 716.28 215.69 715.43 229.22C714.47 244.25 713.92 262.64 715.69 273.84C719.27 296.41 736.55 299.26 736.55 299.26C736.55 299.26 736.55 307.98 736.55 318.69C736.57 322.02 737.25 325.31 738.55 328.37C739.86 331.43 741.76 334.2 744.14 336.52C746.53 338.84 749.35 340.66 752.45 341.88C755.54 343.1 758.85 343.69 762.18 343.62L762.32 343.62Z" />
		<path id="Layer" class="shp2" d="M724.16 243.82C724.16 244.2 724.23 244.58 724.38 244.93C724.53 245.28 724.74 245.6 725.01 245.87C725.28 246.15 725.6 246.36 725.95 246.51C726.31 246.65 726.69 246.73 727.07 246.73C727.42 246.73 727.78 246.67 728.11 246.54C728.45 246.41 728.75 246.23 729.02 245.99C729.29 245.75 729.51 245.47 729.67 245.15C729.83 244.84 729.94 244.49 729.98 244.14C729.98 243.76 729.9 243.38 729.76 243.03C729.61 242.67 729.39 242.35 729.12 242.08C728.85 241.81 728.53 241.6 728.18 241.45C727.83 241.3 727.45 241.23 727.07 241.23C726.71 241.23 726.36 241.29 726.02 241.42C725.69 241.54 725.38 241.73 725.12 241.97C724.85 242.2 724.63 242.49 724.47 242.8C724.3 243.12 724.2 243.46 724.16 243.82Z" />
		<path id="Layer" class="shp2" d="M719.51 238.79C719.85 239.16 722.04 237.54 725.15 237.54C728.26 237.54 730.56 239.11 730.97 238.73C731.37 238.35 730.76 237.88 729.77 237.16C729.44 236.92 729.09 236.72 728.73 236.54C728.36 236.36 727.99 236.21 727.6 236.09C727.21 235.97 726.82 235.88 726.42 235.82C726.02 235.76 725.61 235.73 725.21 235.73C724.8 235.73 724.4 235.76 724.01 235.83C723.61 235.89 723.22 235.98 722.84 236.11C722.46 236.23 722.08 236.38 721.73 236.56C721.37 236.74 721.02 236.95 720.7 237.19C719.65 237.94 719.33 238.61 719.51 238.79Z" />
		<path id="Layer" class="shp2" d="M753.86 243.82C753.86 244.2 753.93 244.58 754.08 244.93C754.22 245.28 754.44 245.6 754.71 245.87C754.98 246.15 755.3 246.36 755.65 246.51C756.01 246.65 756.38 246.73 756.77 246.73C757.13 246.75 757.49 246.7 757.83 246.58C758.18 246.47 758.49 246.28 758.76 246.04C759.03 245.8 759.25 245.51 759.41 245.18C759.57 244.85 759.66 244.5 759.67 244.14C759.68 243.77 759.61 243.4 759.47 243.06C759.33 242.71 759.13 242.4 758.87 242.13C758.62 241.86 758.32 241.65 757.98 241.49C757.64 241.34 757.28 241.25 756.91 241.23C756.54 241.21 756.17 241.26 755.82 241.38C755.47 241.49 755.15 241.68 754.87 241.91C754.59 242.15 754.35 242.44 754.18 242.77C754.01 243.1 753.9 243.45 753.86 243.82L753.86 243.82Z" />
		<path id="Layer" class="shp2" d="M750.08 239.37C750.45 239.75 752.64 238.12 755.75 238.12C758.86 238.12 761.13 239.69 761.57 239.31C762 238.93 761.36 238.47 760.37 237.74C760.04 237.51 759.69 237.3 759.32 237.12C758.95 236.94 758.57 236.79 758.19 236.67C757.8 236.55 757.4 236.46 756.99 236.4C756.59 236.34 756.18 236.31 755.78 236.31C755.38 236.32 754.98 236.35 754.58 236.41C754.18 236.48 753.79 236.57 753.41 236.69C753.03 236.82 752.66 236.97 752.3 237.15C751.94 237.33 751.6 237.54 751.27 237.77C750.34 238.52 749.9 239.19 750.08 239.37Z" />
		<path id="Layer" class="shp2" d="M738.7 262.43C738.29 262.31 737.88 262.19 737.46 262.09C737.04 261.99 736.62 261.91 736.2 261.83C735.78 261.75 735.35 261.69 734.93 261.64C734.5 261.59 734.07 261.56 733.64 261.53C732.86 261.53 732.1 261.3 731.98 260.75C731.97 260.54 731.96 260.34 731.98 260.13C731.99 259.93 732.02 259.73 732.06 259.53C732.11 259.33 732.17 259.13 732.24 258.94C732.31 258.75 732.4 258.57 732.51 258.39C733.23 256.47 734.02 254.46 734.86 252.34C735.41 251.06 735.93 249.77 736.42 248.47C736.91 247.17 737.37 245.85 737.81 244.53C738.25 243.21 738.67 241.89 739.05 240.55C739.44 239.21 739.8 237.87 740.13 236.52C739.48 237.75 738.86 239 738.26 240.25C737.66 241.51 737.09 242.78 736.54 244.06C736 245.34 735.48 246.64 734.98 247.94C734.49 249.24 734.02 250.55 733.58 251.88L731.34 257.95C731.22 258.19 731.11 258.44 731.03 258.7C730.95 258.96 730.89 259.22 730.86 259.49C730.82 259.76 730.81 260.03 730.83 260.3C730.84 260.57 730.88 260.83 730.94 261.1C730.99 261.24 731.07 261.37 731.16 261.49C731.24 261.61 731.34 261.73 731.46 261.83C731.57 261.93 731.69 262.02 731.83 262.09C731.96 262.16 732.1 262.22 732.25 262.26C732.35 262.29 732.46 262.31 732.58 262.33C732.69 262.35 732.8 262.37 732.91 262.39C733.02 262.4 733.13 262.41 733.25 262.42C733.36 262.43 733.47 262.43 733.58 262.43C734.01 262.49 734.43 262.53 734.86 262.56C735.29 262.59 735.72 262.6 736.14 262.6C736.57 262.6 737 262.59 737.43 262.56C737.85 262.53 738.28 262.49 738.7 262.43Z" />
		<path id="Layer" class="shp7" d="M736.64 299.26C739.28 299.3 741.91 299.16 744.53 298.84C747.15 298.52 749.75 298.01 752.29 297.33C754.84 296.65 757.34 295.8 759.78 294.77C762.21 293.74 764.56 292.55 766.83 291.2C769.1 289.85 759.53 306.7 736.96 304.58L736.64 299.26Z" />
		<path id="Layer" class="shp7" d="M740.1 269.94C740.39 269.57 740.73 269.23 741.11 268.95C741.49 268.66 741.91 268.43 742.35 268.25C742.78 268.07 743.24 267.94 743.71 267.88C744.18 267.82 744.66 267.82 745.13 267.87C745.47 267.9 745.81 267.97 746.14 268.07C746.47 268.16 746.79 268.3 747.1 268.46C747.4 268.62 747.69 268.81 747.95 269.03C748.22 269.25 748.46 269.5 748.68 269.76C748.89 270.02 749.05 270.31 749.17 270.61C749.29 270.92 749.36 271.25 749.38 271.57C749.41 271.9 749.38 272.23 749.29 272.55C749.21 272.87 749.09 273.18 748.91 273.46C748.67 273.74 748.38 273.98 748.06 274.17C747.74 274.37 747.4 274.51 747.04 274.61C746.68 274.7 746.3 274.74 745.93 274.72C745.56 274.7 745.19 274.63 744.84 274.51C744.47 274.37 744.11 274.22 743.76 274.06C743.41 273.89 743.06 273.71 742.73 273.51C742.4 273.31 742.07 273.09 741.76 272.86C741.45 272.63 741.14 272.38 740.86 272.12C740.77 272.06 740.68 271.99 740.6 271.92C740.52 271.85 740.45 271.78 740.37 271.7C740.3 271.62 740.23 271.54 740.17 271.45C740.1 271.37 740.04 271.28 739.98 271.19C739.92 271.11 739.88 271.02 739.84 270.92C739.81 270.82 739.8 270.72 739.8 270.62C739.8 270.52 739.81 270.42 739.84 270.32C739.88 270.23 739.92 270.14 739.98 270.05" />
		<path id="Layer" class="shp2" d="M747.95 264.59C747.46 264.59 747.43 267.93 744.55 270.4C741.67 272.88 738.06 272.44 738.03 272.91C738 273.37 738.85 273.55 740.36 273.6C740.85 273.61 741.34 273.57 741.82 273.49C742.31 273.42 742.78 273.3 743.25 273.13C743.71 272.97 744.16 272.77 744.59 272.53C745.01 272.3 745.42 272.02 745.8 271.71C746.16 271.41 746.49 271.08 746.79 270.72C747.09 270.35 747.35 269.96 747.57 269.55C747.8 269.14 747.98 268.71 748.12 268.26C748.27 267.81 748.36 267.35 748.42 266.88C748.56 265.4 748.19 264.59 747.95 264.59Z" />
		<path id="Layer" class="shp2" d="M748.68 233.9C749 234.77 752.11 234.36 755.75 234.8C759.38 235.24 762.35 236.23 762.85 235.47C763.34 234.71 762.55 234.31 761.36 233.49C760.97 233.24 760.56 233.01 760.14 232.8C759.71 232.6 759.28 232.42 758.84 232.26C758.4 232.11 757.94 231.98 757.49 231.88C757.03 231.78 756.56 231.71 756.1 231.66C755.63 231.61 755.16 231.58 754.7 231.58C754.23 231.58 753.76 231.61 753.3 231.66C752.83 231.71 752.37 231.79 751.92 231.9C751.46 232.01 751.01 232.14 750.57 232.3C749.23 232.85 748.56 233.52 748.68 233.9Z" />
		<path id="Layer" class="shp2" d="M719.94 233.03C720.47 233.75 722.62 233.03 725.21 233.03C727.8 233.03 729.95 233.52 730.47 232.77C730.99 232.01 730.33 231.72 729.39 231.05C729.08 230.84 728.74 230.66 728.4 230.51C728.05 230.36 727.7 230.23 727.33 230.13C726.97 230.03 726.6 229.96 726.22 229.92C725.85 229.88 725.47 229.87 725.09 229.89C724.72 229.89 724.34 229.93 723.97 229.99C723.6 230.06 723.24 230.15 722.88 230.27C722.53 230.39 722.18 230.54 721.85 230.71C721.52 230.89 721.2 231.09 720.9 231.31C720 231.98 719.68 232.71 719.94 233.03Z" />
		<path id="Layer" class="shp2" d="M842.57 333.7C838.41 326.54 829.08 321.77 829.13 313.48C829.13 308.42 832.97 304 833.21 298.94C833.67 288.82 820.67 283.49 817.18 273.98C814.01 265.26 819.48 255.63 817.53 246.61C815.17 235.62 805.23 231.25 797.02 223.84C796.16 223.02 795.33 222.17 794.54 221.28C793.75 220.39 793 219.47 792.3 218.51C791.6 217.55 790.94 216.56 790.33 215.54C789.72 214.52 789.16 213.48 788.65 212.4C788.35 211.88 788.09 211.36 787.77 210.86C786.38 208.56 784.73 206.42 782.86 204.48C780.99 202.55 778.9 200.84 776.64 199.37C774.38 197.91 771.96 196.71 769.43 195.8C766.89 194.88 764.27 194.26 761.59 193.93C759.16 193.11 756.67 192.45 754.14 191.97C751.61 191.49 749.05 191.19 746.49 191.07C743.92 190.94 741.34 190.99 738.78 191.23C736.22 191.46 733.67 191.87 731.17 192.45C729.82 192.74 728.49 193.13 727.2 193.62C725.91 194.11 724.66 194.7 723.45 195.37C722.25 196.05 721.1 196.82 720.01 197.67C718.92 198.52 717.9 199.45 716.95 200.45C716.01 201.47 715.21 202.59 714.55 203.81C713.89 205.02 713.39 206.31 713.05 207.65C712.71 208.99 712.53 210.36 712.53 211.74C712.52 213.12 712.69 214.5 713.02 215.84C713.4 217.16 714 218.41 714.8 219.53C715.6 220.65 716.58 221.63 717.71 222.42C718.84 223.2 720.09 223.79 721.42 224.16C722.74 224.53 724.12 224.66 725.5 224.56C729.66 224.01 733.64 220.93 737.66 222.15C741.67 223.37 743.47 227.97 747.43 228.66C751.38 229.36 754.7 225.93 758.6 225.58C762.5 225.23 766.63 228.75 768.55 232.62C768.73 233.01 768.9 233.4 769.07 233.79C769.24 234.18 769.4 234.58 769.56 234.97C769.71 235.37 769.86 235.77 770 236.17C770.15 236.58 770.28 236.98 770.41 237.39C773.61 253.33 779.72 260.66 775.47 269.97C773.2 274.94 769.33 279.36 768.72 284.77C767.35 297.22 783.53 306.3 782.62 318.78C782.25 324.1 778.79 328.61 776.81 333.58C775.91 336.16 775.42 338.87 775.36 341.61C775.3 344.34 775.68 347.07 776.47 349.69C777.26 352.3 778.46 354.78 780.02 357.02C781.59 359.27 783.5 361.25 785.68 362.9C786.78 363.76 787.99 364.49 789.27 365.06C790.54 365.63 791.89 366.05 793.26 366.3C794.64 366.55 796.04 366.64 797.44 366.56C798.84 366.47 800.22 366.22 801.56 365.81C801.71 365.75 801.86 365.69 802.01 365.63C802.16 365.57 802.3 365.51 802.45 365.44C802.59 365.37 802.74 365.3 802.88 365.23C803.02 365.15 803.17 365.07 803.31 365C804.04 365.68 804.82 366.32 805.64 366.91C806.46 367.5 807.31 368.03 808.2 368.5C809.09 368.98 810.01 369.4 810.95 369.75C811.89 370.11 812.86 370.41 813.84 370.64C823.4 372.67 833.41 367.26 839.26 359.41C844.87 352.08 847.2 341.61 842.57 333.7Z" />
		<path id="Layer" class="shp1" d="M803.6 365.14C804.28 365.01 804.96 364.86 805.64 364.68C806.31 364.5 806.98 364.3 807.64 364.08C808.3 363.86 808.96 363.62 809.6 363.35C810.25 363.09 810.88 362.8 811.51 362.49C812.23 362.12 812.93 361.71 813.61 361.26C814.29 360.82 814.95 360.34 815.58 359.83C816.22 359.33 816.83 358.79 817.41 358.22C817.99 357.66 818.55 357.06 819.07 356.44C819.78 355.64 820.42 354.79 821.01 353.9C821.6 353.01 822.12 352.07 822.58 351.11C823.04 350.14 823.42 349.15 823.74 348.13C824.06 347.11 824.31 346.07 824.48 345.01C824.67 343.73 824.75 342.44 824.73 341.15C824.71 339.85 824.58 338.57 824.35 337.29C824.13 336.02 823.8 334.77 823.37 333.55C822.94 332.33 822.42 331.14 821.81 330C821.09 328.7 820.27 327.47 819.34 326.31C818.41 325.16 817.37 324.09 816.25 323.12C815.13 322.15 813.92 321.29 812.64 320.53C811.36 319.78 810.02 319.14 808.63 318.63C807.83 318.35 807.05 318.02 806.29 317.65C805.52 317.28 804.78 316.87 804.07 316.41C803.35 315.96 802.66 315.47 802 314.94C801.34 314.41 800.71 313.85 800.11 313.25C799.53 312.54 799.04 311.78 798.64 310.96C798.23 310.15 797.92 309.29 797.7 308.41C797.48 307.53 797.36 306.63 797.34 305.72C797.32 304.81 797.4 303.9 797.58 303.01C797.74 302.12 797.94 301.23 798.18 300.35C798.42 299.47 798.7 298.61 799.02 297.75C799.34 296.9 799.69 296.06 800.08 295.24C800.47 294.42 800.9 293.61 801.36 292.83C801.82 292.05 802.26 291.27 802.69 290.47C803.12 289.67 803.52 288.87 803.91 288.05C804.3 287.24 804.67 286.41 805.02 285.58C805.37 284.75 805.7 283.91 806.01 283.06C806.3 282.24 806.52 281.4 806.66 280.54C806.79 279.68 806.85 278.81 806.83 277.94C806.81 277.07 806.71 276.21 806.52 275.36C806.34 274.51 806.08 273.68 805.75 272.88C805.38 272.09 804.97 271.33 804.53 270.58C804.09 269.84 803.61 269.11 803.11 268.41C802.6 267.71 802.06 267.03 801.49 266.38C800.92 265.72 800.32 265.1 799.7 264.5C797.31 261.97 794.81 259.61 792.63 256.94C792.1 256.29 791.6 255.62 791.12 254.94C790.64 254.25 790.18 253.55 789.76 252.83C789.33 252.12 788.93 251.38 788.55 250.64C788.18 249.89 787.83 249.13 787.51 248.36C786.95 246.93 786.44 245.49 785.96 244.03C785.48 242.58 785.05 241.11 784.65 239.63C784.26 238.15 783.9 236.66 783.59 235.16C783.27 233.66 783 232.16 782.77 230.64C782.57 229.34 782.34 228.04 782.09 226.75C781.85 225.45 781.58 224.16 781.29 222.88C781 221.59 780.69 220.31 780.36 219.03C780.03 217.76 779.68 216.49 779.31 215.23C778.82 213.39 778.17 211.61 777.37 209.9C776.56 208.18 775.6 206.54 774.5 205C773.4 203.46 772.16 202.02 770.8 200.7C769.44 199.38 767.97 198.19 766.39 197.13C765.79 196.78 765.18 196.46 764.55 196.16C763.93 195.86 763.29 195.59 762.64 195.34C761.99 195.1 761.32 194.89 760.66 194.7C759.99 194.51 759.31 194.35 758.63 194.22L759.06 194.22C759.2 194.23 759.34 194.24 759.47 194.25C759.61 194.27 759.75 194.28 759.88 194.3C760.02 194.32 760.16 194.35 760.29 194.37C760.42 194.4 760.56 194.43 760.69 194.46C761.2 194.56 761.71 194.68 762.21 194.82C762.71 194.96 763.21 195.13 763.7 195.31C764.18 195.5 764.66 195.7 765.13 195.93C765.6 196.16 766.06 196.4 766.51 196.67C767.23 197.09 767.93 197.54 768.61 198.03C769.29 198.52 769.95 199.03 770.57 199.58C771.2 200.13 771.81 200.71 772.38 201.32C772.96 201.92 773.5 202.55 774.01 203.21C774.69 204.08 775.32 204.98 775.92 205.91C776.51 206.84 777.07 207.79 777.58 208.76C778.09 209.74 778.56 210.73 778.98 211.75C779.41 212.76 779.79 213.8 780.12 214.85C780.51 216.12 780.88 217.4 781.23 218.68C781.58 219.97 781.91 221.26 782.21 222.55C782.52 223.85 782.8 225.15 783.06 226.45C783.33 227.76 783.57 229.07 783.79 230.38C784.03 231.87 784.32 233.36 784.64 234.83C784.96 236.31 785.32 237.78 785.72 239.23C786.12 240.69 786.56 242.14 787.04 243.57C787.52 245 788.03 246.43 788.59 247.83C788.9 248.57 789.24 249.3 789.6 250.02C789.97 250.74 790.36 251.44 790.78 252.13C791.19 252.82 791.63 253.49 792.1 254.15C792.56 254.8 793.05 255.44 793.56 256.06C795.66 258.59 798.16 260.95 800.57 263.48C801.22 264.11 801.85 264.76 802.44 265.44C803.04 266.12 803.6 266.83 804.13 267.56C804.67 268.29 805.16 269.04 805.63 269.82C806.09 270.6 806.52 271.39 806.91 272.21C807.28 273.09 807.57 274.01 807.77 274.94C807.98 275.88 808.09 276.83 808.12 277.79C808.15 278.75 808.09 279.7 807.95 280.65C807.81 281.6 807.58 282.53 807.26 283.43C804.85 290.71 799.76 296.32 798.86 303.13C798.69 303.92 798.62 304.72 798.63 305.53C798.64 306.33 798.74 307.13 798.93 307.92C799.11 308.7 799.38 309.46 799.73 310.19C800.08 310.91 800.51 311.6 801.01 312.23C801.57 312.79 802.17 313.32 802.79 313.82C803.41 314.31 804.06 314.77 804.73 315.2C805.4 315.62 806.1 316.01 806.81 316.36C807.53 316.71 808.26 317.02 809.01 317.29C809.75 317.58 810.48 317.91 811.19 318.26C811.9 318.61 812.6 319 813.28 319.41C813.97 319.82 814.63 320.26 815.28 320.73C815.92 321.2 816.55 321.69 817.15 322.21C818.73 323.62 820.12 325.22 821.3 326.97C822.48 328.73 823.44 330.62 824.15 332.62C824.86 334.61 825.32 336.68 825.52 338.78C825.72 340.89 825.65 343.01 825.32 345.1C825.13 346.2 824.86 347.28 824.51 348.34C824.16 349.4 823.74 350.43 823.25 351.43C822.76 352.43 822.2 353.39 821.57 354.32C820.95 355.24 820.26 356.11 819.51 356.94C818.95 357.56 818.37 358.16 817.75 358.72C817.14 359.29 816.5 359.83 815.83 360.33C815.17 360.83 814.48 361.3 813.76 361.73C813.05 362.17 812.32 362.57 811.57 362.93C811.09 363.16 810.61 363.37 810.12 363.57C809.63 363.76 809.14 363.94 808.64 364.1C808.14 364.26 807.63 364.4 807.12 364.53C806.61 364.65 806.09 364.76 805.57 364.85C804.85 365 804.29 365 803.95 365.05C803.6 365.11 803.6 365.17 803.6 365.14Z" />
	</g>
	<g id="Files--inject-10">
		<path id="Layer" class="shp4" d="M1070.33 155.01L1019.79 155.01C1018.96 155.01 1018.13 154.85 1017.37 154.53C1016.6 154.21 1015.9 153.74 1015.32 153.16C1014.73 152.57 1014.26 151.87 1013.95 151.11C1013.63 150.34 1013.46 149.52 1013.46 148.69L1013.46 78.73C1013.46 77.9 1013.63 77.08 1013.95 76.31C1014.26 75.55 1014.73 74.85 1015.32 74.26C1015.9 73.68 1016.6 73.21 1017.37 72.89C1018.13 72.57 1018.96 72.41 1019.79 72.41L1051.84 72.41L1076.65 98.02L1076.65 148.73C1076.64 149.55 1076.47 150.37 1076.15 151.13C1075.83 151.9 1075.37 152.59 1074.78 153.17C1074.2 153.75 1073.5 154.22 1072.74 154.53C1071.97 154.85 1071.15 155.01 1070.33 155.01L1070.33 155.01Z" />
		<g id="Layer" style="opacity: 0.2">
			<path id="Layer" class="shp6" d="M1014.74 129.95L1075.38 129.95C1075.54 129.95 1075.71 129.98 1075.86 130.05C1076.02 130.11 1076.16 130.2 1076.28 130.32C1076.39 130.44 1076.49 130.58 1076.55 130.73C1076.61 130.89 1076.65 131.05 1076.65 131.22L1076.65 148.37C1076.65 149.24 1076.48 150.1 1076.14 150.91C1075.81 151.72 1075.32 152.45 1074.7 153.06C1074.09 153.68 1073.35 154.17 1072.55 154.5C1071.74 154.84 1070.88 155.01 1070.01 155.01L1020.1 155.01C1019.23 155.01 1018.37 154.84 1017.56 154.5C1016.76 154.17 1016.03 153.68 1015.41 153.06C1014.79 152.45 1014.3 151.72 1013.97 150.91C1013.64 150.1 1013.46 149.24 1013.46 148.37L1013.46 131.22C1013.46 131.05 1013.5 130.89 1013.56 130.73C1013.63 130.58 1013.72 130.44 1013.84 130.32C1013.95 130.2 1014.09 130.11 1014.25 130.05C1014.4 129.98 1014.57 129.95 1014.74 129.95L1014.74 129.95Z" />
		</g>
		<g id="Layer" style="opacity: 0.2">
			<path id="Layer" class="shp8" d="M1051.84 72.41L1051.84 92.1C1051.85 92.87 1052 93.64 1052.3 94.35C1052.59 95.06 1053.03 95.7 1053.57 96.25C1054.12 96.79 1054.77 97.22 1055.48 97.52C1056.19 97.81 1056.95 97.96 1057.72 97.96L1076.65 97.96L1051.84 72.41Z" />
		</g>
		<g id="Layer" style="opacity: 0.2">
			<path id="Layer" class="shp6" d="M1052.1 93.86C1052.1 93.86 1051.85 98.64 1057.28 100.21C1057.49 100.27 1057.7 100.31 1057.91 100.35C1060.38 100.79 1076.65 103.69 1076.65 103.31L1076.65 97.96L1057.72 97.96C1057.72 97.96 1052.99 97.82 1052.1 93.86Z" />
		</g>
		<path id="Layer" class="shp5" d="M1031.56 140.87C1031.62 139.81 1032 138.8 1032.63 137.95C1033.27 137.1 1034.14 136.46 1035.14 136.1C1036.14 135.75 1037.22 135.69 1038.25 135.95C1039.28 136.2 1040.21 136.75 1040.93 137.53L1039.43 138.87C1039.28 138.69 1039.11 138.53 1038.92 138.38C1038.74 138.24 1038.54 138.12 1038.32 138.02C1038.11 137.92 1037.89 137.84 1037.66 137.79C1037.43 137.75 1037.19 137.72 1036.96 137.72C1036.12 137.72 1035.32 138.06 1034.73 138.65C1034.14 139.24 1033.81 140.04 1033.81 140.87C1033.81 141.7 1034.14 142.5 1034.73 143.09C1035.32 143.68 1036.12 144.02 1036.96 144.02C1037.19 144.02 1037.43 143.99 1037.66 143.94C1037.89 143.89 1038.11 143.82 1038.33 143.71C1038.54 143.61 1038.74 143.49 1038.93 143.34C1039.11 143.2 1039.28 143.03 1039.43 142.85L1040.89 144.19C1040.18 144.97 1039.24 145.53 1038.22 145.78C1037.19 146.04 1036.1 145.99 1035.1 145.64C1034.1 145.28 1033.23 144.64 1032.59 143.79C1031.95 142.95 1031.58 141.93 1031.52 140.87L1031.56 140.87Z" />
		<path id="Layer" class="shp5" d="M1041.6 144.81L1042.38 143.09C1042.61 143.26 1042.86 143.4 1043.12 143.53C1043.38 143.66 1043.64 143.76 1043.92 143.85C1044.19 143.94 1044.47 144 1044.76 144.05C1045.04 144.09 1045.33 144.12 1045.61 144.12C1046.97 144.12 1047.51 143.68 1047.51 143.09C1047.51 141.25 1041.79 142.52 1041.79 138.86C1041.79 137.19 1043.15 135.79 1045.94 135.79C1046.24 135.78 1046.54 135.8 1046.83 135.83C1047.13 135.86 1047.42 135.92 1047.71 135.99C1048 136.06 1048.28 136.16 1048.55 136.27C1048.83 136.38 1049.1 136.51 1049.35 136.66L1048.65 138.38C1048.44 138.26 1048.23 138.15 1048.01 138.06C1047.79 137.96 1047.56 137.88 1047.33 137.82C1047.1 137.75 1046.87 137.7 1046.63 137.67C1046.4 137.63 1046.16 137.62 1045.92 137.61C1044.58 137.61 1044.06 138.11 1044.06 138.73C1044.06 140.54 1049.77 139.29 1049.77 142.9C1049.77 144.55 1048.41 145.97 1045.6 145.97C1045.25 145.98 1044.9 145.96 1044.55 145.91C1044.2 145.87 1043.85 145.79 1043.51 145.69C1043.18 145.6 1042.84 145.47 1042.52 145.33C1042.2 145.18 1041.89 145.01 1041.6 144.81L1041.6 144.81Z" />
		<path id="Layer" class="shp5" d="M1050.55 144.81L1051.32 143.09C1051.56 143.26 1051.81 143.4 1052.07 143.53C1052.33 143.66 1052.59 143.76 1052.87 143.85C1053.14 143.94 1053.42 144 1053.71 144.05C1053.99 144.09 1054.28 144.12 1054.57 144.12C1055.91 144.12 1056.46 143.68 1056.46 143.09C1056.46 141.25 1050.75 142.52 1050.75 138.86C1050.75 137.19 1052.1 135.79 1054.85 135.79C1055.14 135.78 1055.44 135.79 1055.74 135.83C1056.03 135.86 1056.32 135.92 1056.61 135.99C1056.9 136.06 1057.18 136.16 1057.46 136.27C1057.73 136.38 1058 136.51 1058.26 136.66L1057.56 138.38C1057.36 138.26 1057.14 138.15 1056.92 138.06C1056.7 137.96 1056.48 137.88 1056.25 137.82C1056.02 137.75 1055.78 137.7 1055.55 137.67C1055.31 137.63 1055.07 137.62 1054.84 137.61C1053.48 137.61 1052.97 138.11 1052.97 138.73C1052.97 140.54 1058.68 139.29 1058.68 142.9C1058.68 144.55 1057.32 145.97 1054.52 145.97C1054.17 145.98 1053.82 145.96 1053.47 145.91C1053.13 145.86 1052.78 145.79 1052.45 145.69C1052.11 145.59 1051.79 145.47 1051.47 145.32C1051.15 145.18 1050.84 145.01 1050.55 144.81L1050.55 144.81Z" />
		<path id="Layer" class="shp5" d="M1034.76 109.06C1035.79 109.38 1036.28 110.08 1036.28 111.59L1036.28 115.21C1036.25 115.43 1036.27 115.66 1036.34 115.87C1036.42 116.08 1036.54 116.28 1036.69 116.44C1036.85 116.6 1037.04 116.72 1037.26 116.8C1037.47 116.87 1037.7 116.9 1037.92 116.88L1038.33 116.88L1038.33 119.63L1037.02 119.63C1034.2 119.63 1032.76 118.19 1032.76 115.53L1032.76 111.44C1032.77 111.3 1032.76 111.16 1032.71 111.02C1032.67 110.89 1032.59 110.77 1032.49 110.67C1032.39 110.58 1032.27 110.5 1032.14 110.46C1032.01 110.41 1031.87 110.39 1031.73 110.41L1030.98 110.41L1030.98 107.69L1031.73 107.69C1031.87 107.7 1032.01 107.68 1032.14 107.64C1032.27 107.59 1032.39 107.52 1032.49 107.42C1032.59 107.32 1032.66 107.2 1032.71 107.07C1032.75 106.94 1032.77 106.8 1032.76 106.66L1032.76 102.56C1032.76 99.96 1034.2 98.46 1037.02 98.46L1038.33 98.46L1038.33 101.22L1037.92 101.22C1037.7 101.2 1037.47 101.22 1037.26 101.3C1037.04 101.37 1036.85 101.5 1036.69 101.66C1036.54 101.82 1036.42 102.01 1036.34 102.23C1036.27 102.44 1036.25 102.67 1036.28 102.89L1036.28 106.51C1036.28 108.1 1035.8 108.75 1034.76 109.06Z" />
		<path id="Layer" class="shp5" d="M1059.1 107.69L1059.1 110.44L1058.36 110.44C1058.22 110.42 1058.08 110.44 1057.95 110.49C1057.82 110.53 1057.7 110.61 1057.6 110.71C1057.5 110.8 1057.43 110.92 1057.38 111.06C1057.33 111.19 1057.32 111.33 1057.34 111.47L1057.34 115.56C1057.34 118.17 1055.89 119.66 1053.06 119.66L1051.76 119.66L1051.76 116.88L1052.16 116.88C1052.39 116.9 1052.61 116.88 1052.83 116.8C1053.04 116.73 1053.24 116.61 1053.39 116.44C1053.55 116.28 1053.67 116.09 1053.75 115.87C1053.82 115.66 1053.84 115.43 1053.81 115.21L1053.81 111.59C1053.81 110.03 1054.28 109.38 1055.33 109.06C1054.3 108.75 1053.81 108.1 1053.81 106.54L1053.81 102.92C1053.84 102.7 1053.82 102.47 1053.75 102.25C1053.67 102.04 1053.55 101.84 1053.39 101.68C1053.24 101.52 1053.04 101.4 1052.83 101.32C1052.61 101.25 1052.39 101.22 1052.16 101.25L1051.76 101.25L1051.76 98.5L1053.06 98.5C1055.89 98.5 1057.34 99.94 1057.34 102.59L1057.34 106.69C1057.34 107.42 1057.71 107.72 1058.36 107.72L1059.1 107.69Z" />
		<path id="Layer" class="shp4" d="M1180.67 155.01L1130.14 155.01C1129.31 155.01 1128.49 154.85 1127.72 154.53C1126.95 154.21 1126.26 153.74 1125.67 153.16C1125.08 152.57 1124.62 151.87 1124.3 151.11C1123.98 150.34 1123.82 149.52 1123.82 148.69L1123.82 78.73C1123.82 77.9 1123.98 77.08 1124.3 76.31C1124.62 75.55 1125.08 74.85 1125.67 74.26C1126.26 73.68 1126.95 73.21 1127.72 72.89C1128.49 72.57 1129.31 72.41 1130.14 72.41L1162.19 72.41L1186.96 97.96L1186.96 148.67C1186.96 149.5 1186.8 150.32 1186.48 151.08C1186.17 151.85 1185.71 152.55 1185.12 153.14C1184.54 153.72 1183.85 154.19 1183.08 154.51C1182.32 154.84 1181.5 155 1180.67 155.01L1180.67 155.01Z" />
		<path id="Layer" class="shp5" d="M1167.97 121.37C1167.97 121.37 1168.39 121.37 1169.16 121.2C1169.44 121.13 1169.71 121.05 1169.98 120.94C1170.25 120.84 1170.5 120.72 1170.75 120.57C1171 120.43 1171.24 120.27 1171.46 120.09C1171.68 119.92 1171.9 119.73 1172.09 119.52C1172.23 119.37 1172.37 119.22 1172.49 119.06C1172.61 118.9 1172.73 118.73 1172.84 118.56C1172.94 118.39 1173.04 118.21 1173.13 118.03C1173.22 117.85 1173.3 117.66 1173.36 117.47C1173.4 117.36 1173.44 117.25 1173.47 117.13C1173.5 117.02 1173.53 116.91 1173.55 116.79C1173.58 116.68 1173.6 116.56 1173.62 116.45C1173.63 116.33 1173.65 116.21 1173.66 116.1C1173.66 115.62 1173.66 115.07 1173.66 114.56C1173.66 112.41 1173.66 109.97 1173.66 107.28C1173.66 105.92 1173.66 104.51 1173.66 103.04C1173.66 102.31 1173.66 101.56 1173.66 100.79C1173.67 100.6 1173.67 100.41 1173.67 100.22C1173.67 100.03 1173.66 99.83 1173.64 99.64C1173.63 99.45 1173.61 99.26 1173.59 99.07C1173.56 98.88 1173.53 98.69 1173.5 98.51C1173.41 98.12 1173.29 97.74 1173.13 97.38C1172.98 97.01 1172.79 96.67 1172.57 96.34C1172.35 96.01 1172.1 95.7 1171.82 95.42C1171.54 95.14 1171.24 94.88 1170.91 94.65C1170.75 94.53 1170.57 94.42 1170.4 94.31C1170.22 94.21 1170.03 94.11 1169.84 94.03C1169.66 93.94 1169.46 93.87 1169.27 93.8C1169.07 93.73 1168.87 93.68 1168.67 93.63C1168.46 93.59 1168.25 93.55 1168.03 93.52C1167.82 93.49 1167.61 93.47 1167.39 93.46C1167.18 93.44 1166.96 93.43 1166.75 93.43C1166.53 93.43 1166.31 93.43 1166.1 93.44L1142.9 93.48C1142.42 93.53 1141.94 93.63 1141.48 93.8C1141.02 93.96 1140.57 94.18 1140.16 94.44C1139.75 94.71 1139.37 95.02 1139.04 95.38C1138.7 95.73 1138.41 96.13 1138.16 96.55C1138.04 96.75 1137.93 96.96 1137.83 97.18C1137.73 97.4 1137.64 97.62 1137.57 97.85C1137.5 98.08 1137.44 98.31 1137.4 98.54C1137.35 98.78 1137.33 99.02 1137.31 99.25C1137.31 100.21 1137.31 101.21 1137.31 102.17C1137.31 106.06 1137.31 109.8 1137.31 113.37C1137.31 114.25 1137.31 115.16 1137.31 115.98C1137.33 116.19 1137.37 116.39 1137.41 116.59C1137.45 116.79 1137.51 116.99 1137.57 117.19C1137.64 117.38 1137.72 117.58 1137.8 117.76C1137.89 117.95 1137.98 118.13 1138.09 118.31C1138.29 118.65 1138.52 118.97 1138.79 119.26C1139.05 119.56 1139.34 119.82 1139.66 120.06C1139.98 120.29 1140.32 120.49 1140.67 120.66C1141.03 120.82 1141.4 120.95 1141.79 121.05C1141.97 121.08 1142.16 121.11 1142.35 121.14C1142.54 121.16 1142.73 121.18 1142.92 121.19C1143.11 121.21 1143.3 121.21 1143.49 121.22C1143.68 121.22 1143.87 121.22 1144.06 121.21L1146.32 121.21L1150.56 121.21L1163.33 121.29L1166.81 121.29L1167.72 121.29L1168.03 121.29C1168 121.29 1167.97 121.3 1167.95 121.3C1167.92 121.3 1167.9 121.3 1167.87 121.3C1167.85 121.3 1167.82 121.3 1167.79 121.3C1167.77 121.3 1167.74 121.29 1167.72 121.29L1166.81 121.29L1163.33 121.29L1150.56 121.37L1146.32 121.37L1144.06 121.37C1143.86 121.38 1143.66 121.39 1143.47 121.39C1143.27 121.39 1143.07 121.38 1142.87 121.37C1142.67 121.35 1142.47 121.34 1142.27 121.31C1142.08 121.29 1141.88 121.26 1141.68 121.22C1141.27 121.12 1140.87 120.98 1140.48 120.81C1140.09 120.63 1139.73 120.41 1139.38 120.16C1139.04 119.91 1138.72 119.63 1138.44 119.31C1138.15 119 1137.9 118.65 1137.68 118.29C1137.57 118.12 1137.46 117.94 1137.36 117.75C1137.27 117.57 1137.18 117.38 1137.1 117.19C1137.03 117 1136.96 116.8 1136.9 116.6C1136.84 116.4 1136.79 116.2 1136.76 115.99C1136.69 115.08 1136.76 114.23 1136.76 113.33C1136.76 109.75 1136.76 106.02 1136.76 102.13C1136.76 101.11 1136.76 100.2 1136.76 99.17C1136.77 98.91 1136.8 98.66 1136.85 98.4C1136.9 98.15 1136.96 97.9 1137.03 97.65C1137.11 97.4 1137.2 97.16 1137.31 96.93C1137.41 96.69 1137.53 96.46 1137.67 96.24C1137.94 95.79 1138.26 95.37 1138.62 94.99C1138.99 94.61 1139.4 94.27 1139.84 93.98C1140.28 93.7 1140.76 93.47 1141.25 93.29C1141.75 93.12 1142.27 93 1142.79 92.94C1151.08 92.88 1158.89 92.94 1166.03 92.94C1166.25 92.93 1166.48 92.93 1166.7 92.93C1166.93 92.93 1167.15 92.94 1167.38 92.96C1167.6 92.98 1167.82 93 1168.05 93.03C1168.27 93.06 1168.49 93.1 1168.71 93.15C1169.34 93.3 1169.94 93.54 1170.5 93.86C1171.06 94.18 1171.58 94.57 1172.03 95.03C1172.48 95.5 1172.86 96.02 1173.17 96.59C1173.47 97.15 1173.7 97.76 1173.83 98.39C1173.87 98.59 1173.9 98.78 1173.93 98.98C1173.95 99.18 1173.97 99.38 1173.99 99.58C1174 99.77 1174.01 99.97 1174.01 100.17C1174.01 100.37 1174.01 100.57 1174 100.77C1174 101.54 1174 102.29 1174 103.02C1174 104.49 1174 105.9 1174 107.26C1174 109.95 1174 112.38 1174 114.54C1174 115.07 1174 115.56 1174 116.11C1173.99 116.23 1173.97 116.35 1173.95 116.47C1173.93 116.59 1173.9 116.71 1173.88 116.83C1173.85 116.95 1173.82 117.07 1173.78 117.18C1173.75 117.3 1173.71 117.42 1173.67 117.53C1173.6 117.73 1173.51 117.93 1173.42 118.12C1173.32 118.31 1173.22 118.5 1173.1 118.68C1172.99 118.86 1172.86 119.03 1172.73 119.2C1172.6 119.37 1172.46 119.53 1172.31 119.68C1172.1 119.89 1171.88 120.08 1171.64 120.26C1171.4 120.44 1171.16 120.59 1170.9 120.73C1170.63 120.87 1170.36 120.99 1170.09 121.08C1169.81 121.18 1169.52 121.26 1169.23 121.31C1169.13 121.33 1169.03 121.35 1168.92 121.36C1168.82 121.37 1168.71 121.38 1168.61 121.39C1168.5 121.39 1168.4 121.4 1168.29 121.39C1168.18 121.39 1168.08 121.38 1167.97 121.37Z" />
		<path id="Layer" class="shp5" d="M1173.64 118.07C1173.61 118.05 1173.57 118.02 1173.54 117.99C1173.51 117.96 1173.48 117.93 1173.45 117.89C1173.42 117.86 1173.39 117.83 1173.36 117.8C1173.34 117.76 1173.31 117.73 1173.28 117.7L1172.31 116.54L1168.85 112.24L1166.47 109.23L1165.15 107.56C1164.92 107.29 1164.69 107 1164.46 106.7C1164.41 106.64 1164.35 106.58 1164.28 106.53C1164.22 106.47 1164.15 106.42 1164.08 106.38C1164.01 106.33 1163.94 106.29 1163.86 106.26C1163.79 106.22 1163.71 106.19 1163.63 106.17C1163.47 106.12 1163.29 106.09 1163.12 106.09C1162.95 106.09 1162.78 106.11 1162.61 106.16C1162.44 106.21 1162.29 106.28 1162.14 106.38C1162 106.47 1161.87 106.59 1161.76 106.72L1160.24 108.67L1157.04 112.77L1155.62 114.6L1155.43 114.84L1155.22 114.63L1151.79 111.28L1150.97 110.49C1150.91 110.43 1150.85 110.36 1150.79 110.3C1150.72 110.24 1150.66 110.19 1150.59 110.13C1150.52 110.08 1150.45 110.03 1150.38 109.98C1150.31 109.93 1150.23 109.89 1150.16 109.85C1150.01 109.78 1149.86 109.73 1149.7 109.7C1149.55 109.67 1149.39 109.66 1149.23 109.67C1149.07 109.68 1148.91 109.7 1148.76 109.75C1148.61 109.8 1148.46 109.87 1148.32 109.95C1148.26 110 1148.19 110.05 1148.13 110.1C1148.06 110.15 1148 110.2 1147.94 110.26C1147.88 110.32 1147.82 110.37 1147.76 110.43C1147.71 110.49 1147.65 110.55 1147.6 110.62L1146.89 111.34L1145.55 112.73L1143.13 115.2L1139.63 118.73L1138.66 119.67C1138.64 119.7 1138.61 119.73 1138.58 119.75C1138.55 119.78 1138.52 119.81 1138.49 119.83C1138.46 119.86 1138.43 119.88 1138.4 119.9C1138.37 119.93 1138.34 119.95 1138.3 119.97C1138.27 119.99 1138.39 119.84 1138.59 119.6C1138.8 119.37 1139.12 119 1139.48 118.58L1142.86 114.93L1145.24 112.41L1146.56 111L1147.26 110.28C1147.32 110.21 1147.38 110.14 1147.44 110.07C1147.51 110.01 1147.57 109.94 1147.64 109.88C1147.71 109.82 1147.78 109.76 1147.85 109.7C1147.92 109.64 1147.99 109.58 1148.07 109.53C1148.24 109.42 1148.42 109.34 1148.61 109.27C1148.8 109.21 1149 109.17 1149.2 109.16C1149.4 109.15 1149.6 109.16 1149.79 109.19C1149.99 109.23 1150.18 109.29 1150.36 109.38C1150.45 109.42 1150.54 109.47 1150.62 109.52C1150.71 109.58 1150.79 109.64 1150.87 109.7C1150.95 109.76 1151.03 109.82 1151.1 109.89C1151.18 109.96 1151.25 110.03 1151.32 110.1L1152.15 110.89L1155.59 114.22L1155.2 114.22C1155.65 113.64 1156.14 113.02 1156.62 112.39L1159.83 108.29L1161.37 106.34C1161.51 106.17 1161.68 106.03 1161.86 105.91C1162.05 105.79 1162.25 105.69 1162.47 105.63C1162.68 105.57 1162.9 105.54 1163.12 105.54C1163.34 105.55 1163.56 105.58 1163.77 105.65C1163.87 105.68 1163.97 105.72 1164.06 105.76C1164.16 105.81 1164.25 105.86 1164.34 105.92C1164.42 105.98 1164.5 106.05 1164.58 106.12C1164.66 106.19 1164.73 106.26 1164.8 106.34L1165.5 107.22L1166.8 108.9L1169.12 111.93L1172.45 116.33L1173.34 117.54C1173.56 117.9 1173.64 118.05 1173.64 118.07Z" />
		<path id="Layer" class="shp5" d="M1153.93 104.42C1153.93 104.42 1154.23 104.42 1154.71 104.21C1154.88 104.16 1155.04 104.1 1155.2 104.02C1155.36 103.94 1155.51 103.85 1155.65 103.75C1155.8 103.65 1155.93 103.53 1156.06 103.41C1156.18 103.28 1156.29 103.15 1156.4 103C1157.09 102.07 1157.2 100.83 1156.68 99.79C1156.16 98.75 1155.1 98.09 1153.93 98.09C1152.77 98.09 1151.71 98.75 1151.19 99.79C1150.66 100.83 1150.77 102.07 1151.47 103C1151.57 103.15 1151.69 103.28 1151.81 103.4C1151.93 103.53 1152.07 103.64 1152.21 103.75C1152.35 103.85 1152.5 103.94 1152.66 104.02C1152.82 104.1 1152.98 104.16 1153.15 104.21C1153.64 104.37 1153.94 104.38 1153.93 104.42C1153.92 104.46 1153.64 104.51 1153.11 104.42C1152.92 104.38 1152.73 104.33 1152.55 104.26C1152.37 104.19 1152.2 104.1 1152.04 104C1151.87 103.9 1151.72 103.78 1151.57 103.66C1151.43 103.53 1151.29 103.39 1151.17 103.24C1150.99 103.01 1150.84 102.76 1150.72 102.49C1150.6 102.23 1150.51 101.95 1150.46 101.66C1150.41 101.37 1150.4 101.08 1150.42 100.78C1150.45 100.49 1150.51 100.21 1150.61 99.93C1150.85 99.24 1151.3 98.64 1151.89 98.22C1152.49 97.8 1153.2 97.57 1153.93 97.57C1154.66 97.57 1155.37 97.8 1155.96 98.22C1156.56 98.64 1157.01 99.24 1157.25 99.93C1157.35 100.21 1157.41 100.49 1157.43 100.78C1157.46 101.07 1157.45 101.37 1157.4 101.66C1157.35 101.94 1157.27 102.23 1157.15 102.49C1157.03 102.76 1156.88 103.01 1156.69 103.24C1156.57 103.39 1156.44 103.53 1156.3 103.66C1156.15 103.78 1156 103.9 1155.83 104C1155.67 104.1 1155.49 104.19 1155.31 104.26C1155.13 104.33 1154.95 104.38 1154.76 104.42C1154.69 104.44 1154.62 104.45 1154.55 104.46C1154.48 104.47 1154.41 104.48 1154.34 104.48C1154.27 104.48 1154.2 104.47 1154.13 104.46C1154.06 104.45 1154 104.44 1153.93 104.42Z" />
		<g id="Layer" style="opacity: 0.2">
			<path id="Layer" class="shp6" d="M1123.82 129.95L1186.96 129.95L1186.96 148.49C1186.96 149.35 1186.79 150.2 1186.46 150.99C1186.14 151.78 1185.66 152.5 1185.05 153.1C1184.45 153.71 1183.73 154.19 1182.94 154.51C1182.15 154.84 1181.3 155.01 1180.44 155.01L1130.24 155.01C1129.39 155.01 1128.54 154.84 1127.75 154.51C1126.96 154.19 1126.24 153.71 1125.63 153.1C1125.03 152.5 1124.55 151.78 1124.22 150.99C1123.89 150.2 1123.72 149.35 1123.72 148.49L1123.72 129.95C604 16 604 16 604 16L604 16L604 16L604 16L1123.82 129.95Z" />
		</g>
		<path id="Layer" class="shp4" d="M1162.19 72.41L1162.19 92.1C1162.19 92.87 1162.34 93.64 1162.64 94.35C1162.94 95.06 1163.37 95.7 1163.92 96.25C1164.46 96.79 1165.11 97.22 1165.82 97.52C1166.53 97.81 1167.3 97.96 1168.07 97.96L1186.96 97.96L1162.19 72.41Z" />
		<g id="Layer" style="opacity: 0.2">
			<path id="Layer" class="shp6" d="M1162.44 93.86C1162.44 93.86 1162.2 98.64 1167.64 100.21C1167.69 100.22 1167.74 100.23 1167.79 100.25C1167.84 100.26 1167.89 100.27 1167.94 100.29C1167.99 100.3 1168.04 100.31 1168.1 100.32C1168.15 100.33 1168.2 100.34 1168.25 100.35C1170.73 100.79 1187 103.69 1187 103.31L1187 97.96L1168.07 97.96C1168.07 97.96 1163.39 97.82 1162.44 93.86Z" />
		</g>
		<path id="Layer" class="shp5" d="M1149.75 141.58L1151.8 141.58L1151.8 145.56C1151.51 145.77 1151.2 145.95 1150.89 146.1C1150.57 146.26 1150.24 146.39 1149.91 146.5C1149.57 146.6 1149.23 146.68 1148.88 146.74C1148.53 146.79 1148.17 146.81 1147.82 146.81C1146.36 147 1144.89 146.55 1143.79 145.57C1142.69 144.6 1142.05 143.2 1142.05 141.73C1142.05 140.26 1142.69 138.86 1143.79 137.89C1144.89 136.91 1146.36 136.46 1147.82 136.65C1148.2 136.63 1148.59 136.66 1148.96 136.72C1149.34 136.79 1149.71 136.9 1150.06 137.04C1150.41 137.19 1150.75 137.37 1151.06 137.59C1151.37 137.81 1151.66 138.07 1151.92 138.35L1150.45 139.69C1150.3 139.51 1150.12 139.35 1149.92 139.21C1149.73 139.08 1149.52 138.96 1149.31 138.86C1149.09 138.77 1148.86 138.7 1148.62 138.65C1148.39 138.6 1148.15 138.58 1147.91 138.59C1147.08 138.59 1146.28 138.92 1145.69 139.51C1145.1 140.1 1144.77 140.9 1144.77 141.73C1144.77 142.56 1145.1 143.36 1145.69 143.95C1146.28 144.54 1147.08 144.88 1147.91 144.88C1148.07 144.88 1148.22 144.87 1148.37 144.86C1148.53 144.84 1148.68 144.81 1148.83 144.78C1148.98 144.74 1149.12 144.7 1149.27 144.64C1149.41 144.59 1149.55 144.53 1149.69 144.46L1149.75 141.58Z" />
		<path id="Layer" class="shp5" d="M1153.93 136.81L1156.22 136.81L1156.22 146.65L1153.95 146.65L1153.93 136.81Z" />
		<path id="Layer" class="shp5" d="M1160.8 138.64L1160.8 141.24L1165.35 141.24L1165.35 143.04L1160.8 143.04L1160.8 146.63L1158.53 146.63L1158.53 136.79L1165.96 136.79L1165.96 138.62L1160.8 138.64Z" />
		<path id="Layer" class="shp4" d="M958.42 155.01L907.88 155.01C907.05 155.01 906.22 154.85 905.46 154.53C904.69 154.21 903.99 153.74 903.41 153.16C902.82 152.57 902.35 151.87 902.04 151.11C901.72 150.34 901.55 149.52 901.55 148.69L901.55 78.73C901.55 77.9 901.72 77.08 902.04 76.31C902.35 75.55 902.82 74.85 903.41 74.26C903.99 73.68 904.69 73.21 905.46 72.89C906.22 72.57 907.05 72.41 907.88 72.41L939.92 72.41L964.74 97.96L964.74 148.67C964.74 149.5 964.58 150.32 964.26 151.09C963.95 151.86 963.48 152.56 962.89 153.15C962.31 153.74 961.61 154.21 960.84 154.53C960.07 154.84 959.25 155.01 958.42 155.01L958.42 155.01Z" />
		<g id="Layer" style="opacity: 0.2">
			<path id="Layer" class="shp6" d="M901.55 129.95L964.74 129.95L964.74 148C964.74 148.92 964.56 149.83 964.2 150.68C963.85 151.53 963.34 152.31 962.69 152.96C962.03 153.61 961.26 154.12 960.41 154.48C959.56 154.83 958.65 155.01 957.73 155.01L908.55 155.01C907.63 155.01 906.72 154.83 905.87 154.48C905.02 154.12 904.25 153.61 903.6 152.96C902.95 152.31 902.43 151.53 902.08 150.68C901.73 149.83 901.54 148.92 901.54 148L901.54 129.95C604 16 604 16 604 16L604 16L604 16L604 16L901.55 129.95Z" />
		</g>
		<path id="Layer" class="shp5" d="M923.94 146.12L925.54 144.2C925.66 144.4 925.8 144.58 925.97 144.74C926.13 144.91 926.32 145.05 926.52 145.17C926.72 145.29 926.93 145.38 927.15 145.45C927.37 145.51 927.6 145.55 927.83 145.56C928.98 145.56 929.58 144.88 929.58 143.51L929.58 137.63L925.23 137.63L925.23 135.34L932.4 135.34L932.4 143.36C932.4 146.43 930.87 147.92 927.96 147.92C927.58 147.93 927.2 147.9 926.82 147.83C926.45 147.75 926.09 147.64 925.74 147.48C925.39 147.33 925.06 147.13 924.76 146.9C924.46 146.67 924.18 146.41 923.94 146.12Z" />
		<path id="Layer" class="shp5" d="M934.14 146.82L935.06 144.83C935.3 144.98 935.56 145.12 935.83 145.23C936.09 145.35 936.37 145.44 936.64 145.52C936.92 145.6 937.21 145.66 937.49 145.7C937.78 145.74 938.07 145.76 938.36 145.76C939.63 145.76 940.11 145.42 940.11 144.9C940.11 143.34 934.36 144.9 934.36 141.13C934.36 139.33 935.99 138.05 938.77 138.05C939.08 138.05 939.4 138.06 939.71 138.09C940.03 138.13 940.34 138.18 940.64 138.25C940.95 138.32 941.26 138.41 941.55 138.51C941.85 138.62 942.14 138.74 942.42 138.88L941.5 140.85C941.29 140.73 941.08 140.63 940.86 140.54C940.64 140.45 940.41 140.37 940.18 140.31C939.95 140.26 939.72 140.21 939.48 140.18C939.24 140.15 939 140.14 938.77 140.14C937.53 140.14 936.99 140.53 936.99 141.02C936.99 142.65 942.74 141.02 942.74 144.82C942.74 146.59 941.09 147.9 938.25 147.9C937.89 147.9 937.54 147.88 937.18 147.84C936.82 147.79 936.47 147.72 936.12 147.63C935.78 147.54 935.44 147.43 935.1 147.29C934.77 147.16 934.45 147 934.14 146.82Z" />
		<path id="Layer" class="shp5" d="M914.94 116.79L916.92 114.47C917.18 114.89 917.5 115.29 917.86 115.63C918.22 115.98 918.62 116.28 919.05 116.53C919.49 116.78 919.95 116.97 920.43 117.1C920.92 117.23 921.41 117.3 921.91 117.31C924.61 117.31 926.01 115.67 926.01 112.45L926.01 98.99L917.36 98.99L917.36 96.02L929.39 96.02L929.39 112.31C929.39 117.63 926.79 120.27 921.91 120.27C921.24 120.28 920.56 120.22 919.9 120.07C919.24 119.92 918.6 119.7 917.99 119.4C917.39 119.09 916.82 118.72 916.31 118.28C915.79 117.84 915.33 117.34 914.94 116.79Z" />
		<path id="Layer" class="shp5" d="M933.59 118.05L934.92 115.46C935.39 115.77 935.89 116.04 936.39 116.27C936.9 116.5 937.43 116.7 937.96 116.86C938.5 117.02 939.05 117.14 939.6 117.22C940.16 117.3 940.72 117.34 941.28 117.34C944.35 117.34 945.58 116.41 945.58 114.88C945.58 110.78 934.14 114.33 934.14 107.12C934.14 103.88 937.03 101.69 941.69 101.69C942.26 101.68 942.83 101.71 943.4 101.77C943.97 101.84 944.53 101.94 945.09 102.08C945.64 102.22 946.19 102.39 946.72 102.6C947.25 102.81 947.77 103.05 948.27 103.33L946.87 105.93C946.48 105.69 946.08 105.47 945.66 105.29C945.24 105.11 944.81 104.95 944.36 104.83C943.92 104.71 943.47 104.62 943.02 104.57C942.56 104.51 942.1 104.49 941.64 104.5C938.78 104.5 937.38 105.52 937.38 106.99C937.38 111.26 948.86 107.78 948.86 114.81C948.86 118.09 945.85 120.17 941.03 120.17C940.38 120.19 939.72 120.16 939.07 120.07C938.42 119.99 937.78 119.86 937.15 119.68C936.52 119.5 935.91 119.27 935.31 119C934.71 118.73 934.14 118.41 933.59 118.05Z" />
		<path id="Layer" class="shp4" d="M939.92 72.41L939.92 92.1C939.93 92.87 940.08 93.64 940.38 94.35C940.67 95.06 941.11 95.7 941.65 96.25C942.2 96.79 942.85 97.22 943.56 97.52C944.27 97.81 945.03 97.96 945.8 97.96L964.74 97.96L939.92 72.41Z" />
		<g id="Layer" style="opacity: 0.2">
			<path id="Layer" class="shp6" d="M940.19 93.86C940.19 93.86 939.93 98.64 945.37 100.21C945.43 100.22 945.48 100.23 945.53 100.25C945.58 100.26 945.63 100.27 945.68 100.29C945.74 100.3 945.79 100.31 945.84 100.32C945.89 100.33 945.95 100.34 946 100.35C948.47 100.79 964.74 103.69 964.74 103.31L964.74 97.96L945.8 97.96C945.8 97.96 941.07 97.82 940.19 93.86Z" />
		</g>
		<path id="Layer" class="shp4" d="M845.47 155.01L794.94 155.01C794.11 155.01 793.29 154.85 792.52 154.53C791.76 154.21 791.06 153.74 790.47 153.16C789.89 152.57 789.42 151.87 789.1 151.11C788.78 150.34 788.62 149.52 788.62 148.69L788.62 78.73C788.62 77.9 788.78 77.08 789.1 76.31C789.42 75.55 789.89 74.85 790.47 74.26C791.06 73.68 791.76 73.21 792.52 72.89C793.29 72.57 794.11 72.41 794.94 72.41L826.99 72.41L851.8 98.02L851.8 148.73C851.8 149.56 851.63 150.37 851.31 151.14C850.99 151.9 850.52 152.59 849.93 153.17C849.34 153.75 848.65 154.22 847.88 154.53C847.12 154.85 846.3 155.01 845.47 155.01L845.47 155.01Z" />
		<g id="Layer" style="opacity: 0.2">
			<path id="Layer" class="shp6" d="M788.62 129.95L851.8 129.95L851.8 147.94C851.8 148.87 851.62 149.79 851.27 150.64C850.91 151.5 850.39 152.28 849.73 152.94C849.08 153.59 848.3 154.12 847.44 154.47C846.58 154.83 845.66 155.01 844.73 155.01L795.68 155.01C794.75 155.01 793.83 154.83 792.97 154.47C792.12 154.12 791.34 153.59 790.68 152.94C790.02 152.28 789.5 151.5 789.15 150.64C788.79 149.79 788.61 148.87 788.61 147.94L788.61 129.95C604 16 604 16 604 16L604 16L604 16L604 16L788.62 129.95Z" />
		</g>
		<g id="Layer" style="opacity: 0.2">
			<path id="Layer" class="shp8" d="M826.99 72.41L826.99 92.1C826.99 92.87 827.15 93.64 827.44 94.35C827.74 95.06 828.17 95.7 828.72 96.25C829.27 96.79 829.91 97.22 830.62 97.52C831.34 97.81 832.1 97.96 832.87 97.96L851.8 97.96L826.99 72.41Z" />
		</g>
		<g id="Layer" style="opacity: 0.2">
			<path id="Layer" class="shp6" d="M827.25 93.86C827.25 93.86 827 98.64 832.44 100.21C832.49 100.22 832.54 100.23 832.59 100.25C832.64 100.26 832.69 100.27 832.75 100.29C832.8 100.3 832.85 100.31 832.9 100.32C832.95 100.33 833 100.34 833.05 100.35C835.53 100.79 851.8 103.69 851.8 103.31L851.8 97.96L832.87 97.96C832.87 97.96 828.15 97.82 827.25 93.86Z" />
		</g>
		<path id="Layer" class="shp5" d="M814.56 109.23L806.98 112.01L814.56 114.76L814.56 117.63L803.72 113.54L803.72 110.55L814.56 106.46L814.56 109.23Z" />
		<path id="Layer" class="shp5" d="M822.72 100.82L825.88 100.82L818.36 122.29L815.2 122.29L822.72 100.82Z" />
		<path id="Layer" class="shp5" d="M837.13 110.55L837.13 113.52L826.32 117.63L826.32 114.79L833.91 112.03L826.32 109.23L826.32 106.43L837.13 110.55Z" />
		<path id="Layer" class="shp5" d="M811.98 139.27L811.98 147.77L810.01 147.77L810.01 144.28L806.15 144.28L806.15 147.77L804.19 147.77L804.19 139.27L806.16 139.27L806.16 142.62L810.02 142.62L810.02 139.27L811.98 139.27Z" />
		<path id="Layer" class="shp5" d="M815.76 140.87L813 140.87L813 139.27L820.41 139.27L820.41 140.87L817.72 140.87L817.72 147.77L815.76 147.77L815.76 140.87Z" />
		<path id="Layer" class="shp5" d="M829.22 147.77L829.22 142.64L826.72 146.83L825.83 146.83L823.35 142.73L823.35 147.72L821.51 147.72L821.51 139.23L823.13 139.23L826.3 144.51L829.44 139.23L831.05 139.23L831.05 147.72L829.22 147.77Z" />
		<path id="Layer" class="shp5" d="M833.08 139.27L835.04 139.27L835.04 146.17L839.3 146.17L839.3 147.77L833.08 147.77L833.08 139.27Z" />
		<g id="Layer" style="opacity: 0.2">
			<path id="Layer" class="shp8" d="M939.92 72.41L939.92 92.1C939.93 92.87 940.08 93.64 940.38 94.35C940.67 95.06 941.11 95.7 941.65 96.25C942.2 96.79 942.85 97.22 943.56 97.52C944.27 97.81 945.03 97.96 945.8 97.96L964.74 97.96L939.92 72.41Z" />
		</g>
		<g id="Layer" style="opacity: 0.2">
			<path id="Layer" class="shp8" d="M1162.19 72.41L1162.19 92.1C1162.19 92.87 1162.34 93.64 1162.64 94.35C1162.94 95.06 1163.37 95.7 1163.92 96.25C1164.46 96.79 1165.11 97.22 1165.82 97.52C1166.53 97.81 1167.3 97.96 1168.07 97.96L1186.96 97.96L1162.19 72.41Z" />
		</g>
	</g>
	<path id="Layer" class="shp9" d="M418.87 525.32C418.87 525.32 434.64 522.8 444.09 533.94C444.09 533.94 437.16 539.4 422.24 531.83L418.87 525.32Z" />
	<path id="Layer" class="shp9" d="M417.22 525.07C417.22 525.07 407.16 537.45 412.12 551.23C412.12 551.23 420.31 547.95 421.21 531.24L417.22 525.07Z" />
	<path id="Layer" class="shp9" d="M408.18 504.72C408.18 504.72 414.49 493.16 439.71 509.35C439.71 509.35 436.35 517.12 425.21 516.49C414.07 515.86 411.13 510.82 408.18 504.72Z" />
	<path id="Layer" class="shp9" d="M406.56 503.89C406.56 503.89 393.47 502.39 392.2 532.34C392.2 532.34 400.5 534.06 406.39 524.58C412.28 515.11 409.87 509.8 406.56 503.89Z" />
	<path id="Layer" class="shp9" d="M398.94 480C398.94 480 406.29 459.61 432.98 474.11C432.98 474.11 426.89 492.82 401.67 486.93L398.94 480Z" />
	<path id="Layer" class="shp9" d="M390.74 449.52C390.74 449.52 404.61 428.93 429.2 448.02C429.2 448.02 420.58 467.36 392.84 456.85L390.74 449.52Z" />
	<path id="Layer" class="shp9" d="M387.8 420.52C387.8 420.52 403.98 401.6 428.33 420.52C428.33 420.52 412.99 437.12 387.8 425.36L387.8 420.52Z" />
	<path id="Layer" class="shp9" d="M385.28 392.35C385.28 392.35 401.67 372.6 425 391.3C425 391.3 406.5 408.75 385.28 396.98L385.28 392.35Z" />
	<path id="Layer" class="shp9" d="M386.75 367.34C386.75 367.34 404.01 341.91 425.84 359.15C425.84 359.15 407.34 381 386.75 372.18L386.75 367.34Z" />
	<path id="Layer" class="shp9" d="M390.74 338.13C390.74 338.13 409.03 312.91 430.25 332.25C430.25 332.25 408.6 354.1 390.74 342.75L390.74 338.13Z" />
	<path id="Layer" class="shp9" d="M396.84 312.02C396.84 312.02 418.48 288.31 437.37 297.76C437.37 297.76 414.81 322.93 395.89 318.31L396.84 312.02Z" />
	<path id="Layer" class="shp9" d="M404.4 287.26C404.4 287.26 429.38 258.23 443.91 267.93C443.91 267.93 425.51 290.45 402.63 292.7L404.4 287.26Z" />
	<path id="Layer" class="shp9" d="M415.32 258.55C415.32 258.55 437.19 234.85 453.16 240.73C453.16 240.73 434.45 265.32 412.39 265.95L415.32 258.55Z" />
	<path id="Layer" class="shp9" d="M425.21 231.7C425.21 231.7 449.38 209 459.88 212.99C459.88 212.99 442.44 238.21 424.16 236.74L425.21 231.7Z" />
	<path id="Layer" class="shp9" d="M434.88 206.9C434.88 206.9 455.68 179.78 467.04 181.88C467.04 181.88 454.42 206.06 434.88 209.65L434.88 206.9Z" />
	<path id="Layer" class="shp9" d="M445.37 173.46C445.37 173.46 463.76 152.68 473.7 152.72C473.7 152.72 459.18 180.49 444.61 180.24L445.37 173.46Z" />
	<path id="Layer" class="shp9" d="M451.58 151.2L469.35 107.9C469.35 107.9 470.24 147.04 449.32 159.23L451.58 151.2Z" />
	<path id="Layer" class="shp9" d="M458.8 103.45C458.8 103.45 461.74 67.3 459.85 64.35C459.85 64.35 472.55 94.41 458.68 119.42L458.8 103.45Z" />
	<path id="Layer" class="shp9" d="M398.25 479.52C398.25 479.52 379.83 468.1 367.9 496.03C367.9 496.03 384.29 506.91 400.42 486.64L398.25 479.52Z" />
	<path id="Layer" class="shp9" d="M390.15 448.36C390.15 448.36 367.56 438.06 356.6 467.22C356.6 467.22 374.05 479.23 392.2 455.73L390.15 448.36Z" />
	<path id="Layer" class="shp9" d="M386.75 422.26C386.75 422.26 370.56 403.33 346.22 422.26C346.22 422.26 361.56 438.86 386.75 427.09L386.75 422.26Z" />
	<path id="Layer" class="shp9" d="M384.72 392.35C384.72 392.35 368.33 372.6 345 391.3C345 391.3 363.49 408.75 384.72 396.98L384.72 392.35Z" />
	<path id="Layer" class="shp9" d="M386.75 368.06C386.75 368.06 375.25 339.58 350.25 351.83C350.25 351.83 363.76 377.09 385.73 372.79L386.75 368.06Z" />
	<path id="Layer" class="shp9" d="M392.19 337.99C392.19 337.99 380.76 309.01 355.41 322.44C355.41 322.44 370.93 349.01 391.06 342.46L392.19 337.99Z" />
	<path id="Layer" class="shp9" d="M399.27 312.16C399.27 312.16 394.77 280.39 373.75 277.54C373.75 277.54 378.21 311.05 396.45 317.89L399.27 312.16Z" />
	<path id="Layer" class="shp9" d="M404.93 287.32C404.93 287.32 403.18 249.04 385.8 247.71C385.8 247.71 386.39 276.76 402.98 292.74L404.93 287.32Z" />
	<path id="Layer" class="shp9" d="M417.12 257.48C417.12 257.48 411.94 225.65 395.36 221.76C395.36 221.76 397.41 252.59 415.48 265.29L417.12 257.48Z" />
	<path id="Layer" class="shp9" d="M427.17 231.96C427.17 231.96 427 198.8 416.87 193.93C416.87 193.93 410.59 223.95 424.24 236.19L427.17 231.96Z" />
	<path id="Layer" class="shp9" d="M435.65 206.52C435.65 206.52 434.23 172.38 423.74 167.57C423.74 167.57 420.15 194.59 434.08 208.76L435.65 206.52Z" />
	<path id="Layer" class="shp9" d="M446.83 176.18C446.83 176.18 446.77 148.41 439.28 141.9C439.28 141.9 431.84 172.32 442.92 181.77L446.83 176.18Z" />
	<path id="Layer" class="shp9" d="M450.71 149.83L443.42 103.61C443.42 103.61 433.52 141.48 451.05 158.18L450.71 149.83Z" />
	<path id="Layer" class="shp9" d="M452.12 103.89C452.12 103.89 433.42 72.81 433.8 69.36C433.8 69.36 435.79 101.93 459.32 118.15L452.12 103.89Z" />
	<path id="Layer" class="shp9" d="M454.32 94.71C454.32 94.71 436.66 50.57 428.68 47C428.68 47 453.9 59.82 455.79 93.45L454.32 94.71Z" />
	<path id="Layer" class="shp10" d="M444.52 180.5L443.31 180.13C458.21 131.55 461.93 100.57 453.78 92.8L454.65 91.89C463.28 100.08 459.78 130.72 444.52 180.5Z" />
	<path id="Layer" class="shp10" d="M403.49 294.26L401.71 293.62C403.29 289.17 404.99 284.65 406.78 280.2C422.33 241.44 435.57 205.38 444.06 177.7L445.62 176.95C437.11 204.68 424.1 242.12 408.54 280.94C406.76 285.3 405.06 289.8 403.49 294.26Z" />
	<path id="Layer" class="shp10" d="M441.08 561.68C440.84 561.41 416.7 534.22 399.86 487.8C397.4 481.02 395.21 474.14 393.29 467.18C391.37 460.23 389.73 453.2 388.37 446.12C387.01 439.03 385.93 431.9 385.13 424.73C384.33 417.56 383.82 410.36 383.6 403.15C382.44 367.02 390.02 326.68 403.01 290.04L404.42 291.69C375.26 373.93 386.85 444.41 402.21 486.84C418.87 532.85 442.74 559.74 442.97 560.01L441.08 561.68Z" />
	<path id="Layer" class="shp9" d="M578 113.31C578 113.31 549.47 111.59 552.81 131.6C552.81 131.6 552.14 135.13 555.34 136.74C555.34 136.74 555.4 135.24 558.27 135.76C558.53 135.8 558.79 135.84 559.04 135.87C559.3 135.89 559.56 135.91 559.82 135.93C560.08 135.94 560.34 135.94 560.6 135.94C560.86 135.94 561.12 135.93 561.38 135.91C561.73 135.88 562.07 135.83 562.41 135.75C562.75 135.67 563.08 135.57 563.4 135.43C563.72 135.3 564.03 135.14 564.33 134.96C564.63 134.78 564.91 134.57 565.17 134.35L565.17 134.35C565.17 134.35 573.19 131.03 576.32 117.91C576.32 117.91 578.63 115.05 578.57 114.31L573.73 116.37C573.73 116.37 575.38 119.84 574.09 122.73C574.09 122.73 573.93 116.5 573 116.64C572.81 116.64 570.5 117.85 570.5 117.85C570.5 117.85 573.33 123.91 571.19 128.3C571.19 128.3 572 120.84 569.61 118.28L566.22 120.26C566.22 120.26 569.53 126.52 567.29 131.62C567.29 131.62 567.86 123.79 565.51 120.75L562.43 123.15C562.43 123.15 565.54 129.31 563.65 133.54C563.65 133.54 563.4 124.43 561.77 123.74C561.77 123.74 559.07 126.11 558.67 127.09C558.67 127.09 560.8 131.59 559.47 133.93C559.47 133.93 558.67 127.85 557.97 127.82C557.97 127.82 555.29 131.85 555.01 134.58C555.05 133.95 555.12 133.31 555.23 132.69C555.35 132.07 555.5 131.45 555.7 130.85C555.89 130.24 556.13 129.65 556.4 129.08C556.67 128.51 556.98 127.95 557.32 127.42C556.93 127.49 556.56 127.59 556.19 127.72C555.82 127.85 555.46 128 555.11 128.18C554.77 128.36 554.43 128.56 554.12 128.79C553.8 129.02 553.5 129.27 553.22 129.54C552.94 129.81 553.63 126.7 557.99 126.45C557.99 126.45 560.2 123.39 560.79 123.21C560.79 123.21 556.46 122.85 553.84 124.01C553.84 124.01 556.16 121.33 561.58 122.51L564.58 120.03C564.58 120.03 558.89 119.28 556.48 120.11C556.48 120.11 559.26 117.74 565.4 119.47L568.71 117.5C568.71 117.5 563.86 116.45 560.97 116.83C560.97 116.83 564.01 115.18 569.68 116.96L572.04 115.9C572.04 115.9 568.49 115.21 567.44 115.09C566.4 114.98 566.35 114.7 566.35 114.7C566.91 114.6 567.47 114.55 568.04 114.54C568.61 114.52 569.18 114.55 569.74 114.61C570.3 114.67 570.86 114.77 571.41 114.91C571.96 115.05 572.5 115.23 573.03 115.45C573.55 115.66 578.09 113.62 578 113.31Z" />
	<path id="Layer" class="shp0" d="M979.26 195.56C979.26 195.56 950.74 193.84 954.07 213.85C954.07 213.85 953.4 217.38 956.61 218.99C956.61 218.99 956.66 217.49 959.54 218.01C959.79 218.05 960.05 218.08 960.31 218.11C960.57 218.14 960.83 218.16 961.08 218.17C961.34 218.19 961.6 218.19 961.86 218.19C962.12 218.18 962.38 218.17 962.64 218.16C962.99 218.13 963.33 218.08 963.66 218C964 217.92 964.33 217.81 964.65 217.68C964.96 217.55 965.27 217.39 965.56 217.21C965.86 217.03 966.14 216.82 966.4 216.6L966.4 216.6C966.4 216.6 974.43 213.28 977.54 200.16C977.54 200.16 979.85 197.3 979.79 196.56L974.97 198.62C974.97 198.62 976.62 202.09 975.33 204.98C975.33 204.98 975.17 198.75 974.25 198.89C974.06 198.89 971.74 200.1 971.74 200.1C971.74 200.1 974.57 206.15 972.44 210.55C972.44 210.55 973.25 203.09 970.85 200.53L967.46 202.51C967.46 202.51 970.77 208.77 968.53 213.87C968.53 213.87 969.11 206.04 966.75 202.99L963.68 205.4C963.68 205.4 966.79 211.56 964.89 215.79C964.89 215.79 964.64 206.68 963.01 205.99C963.01 205.99 960.32 208.36 959.91 209.34C959.91 209.34 962.04 213.84 960.72 216.17C960.72 216.17 959.91 210.1 959.22 210.07C959.22 210.07 956.54 214.1 956.26 216.83C956.3 216.19 956.37 215.56 956.48 214.94C956.6 214.32 956.75 213.7 956.95 213.1C957.14 212.49 957.38 211.9 957.65 211.33C957.92 210.75 958.23 210.2 958.57 209.67C958.19 209.74 957.81 209.84 957.44 209.97C957.07 210.1 956.71 210.25 956.37 210.43C956.02 210.61 955.69 210.81 955.37 211.04C955.05 211.27 954.75 211.52 954.47 211.79C954.19 212.06 954.89 208.95 959.24 208.7C959.24 208.7 961.45 205.64 962.04 205.46C962.04 205.46 957.72 205.1 955.09 206.26C955.09 206.26 957.4 203.58 962.83 204.76L965.83 202.28C965.83 202.28 960.14 201.53 957.73 202.36C957.73 202.36 960.5 199.99 966.65 201.72L969.95 199.74C969.95 199.74 965.1 198.7 962.21 199.08C962.21 199.08 965.25 197.43 970.92 199.21L973.29 198.15C973.29 198.15 969.73 197.46 968.68 197.34C967.64 197.23 967.59 196.94 967.59 196.94C968.15 196.85 968.71 196.8 969.28 196.78C969.85 196.77 970.42 196.79 970.98 196.85C971.55 196.92 972.1 197.02 972.65 197.16C973.2 197.3 973.74 197.48 974.27 197.7C974.79 197.91 979.35 195.87 979.26 195.56Z" />
	<path id="Layer" class="shp0" d="M626.03 236.93C626.03 236.93 613.6 211.16 597.78 223.86C597.78 223.86 594.37 225 594.53 228.58C594.53 228.58 595.85 227.9 596.78 230.66C596.87 230.9 596.97 231.15 597.07 231.38C597.17 231.62 597.28 231.86 597.39 232.09C597.51 232.32 597.63 232.55 597.76 232.78C597.89 233 598.02 233.22 598.17 233.44C598.36 233.73 598.57 234.01 598.8 234.26C599.04 234.52 599.29 234.76 599.57 234.98C599.84 235.19 600.13 235.39 600.44 235.56C600.74 235.73 601.06 235.87 601.39 235.99L601.39 235.99C601.39 235.99 608.19 241.38 621.17 237.7C621.17 237.7 624.8 238.32 625.39 237.89L621.25 234.68C621.25 234.68 618.99 237.81 615.86 238.09C615.86 238.09 621.23 234.92 620.65 234.18C620.53 234.03 618.4 232.58 618.4 232.58C618.4 232.58 614.49 238.01 609.61 238.29C609.61 238.29 616.52 235.36 617.58 232.02L614.21 230.02C614.21 230.02 610.35 235.97 604.81 236.49C604.81 236.49 611.92 233.18 613.43 229.64L609.84 228.14C609.84 228.14 605.98 233.86 601.36 234.27C601.36 234.27 609.19 229.61 609 227.85C609 227.85 605.61 226.66 604.56 226.77C604.56 226.77 601.69 230.82 598.99 230.82C598.99 230.82 603.89 227.15 603.59 226.56C603.59 226.56 598.77 226.18 596.24 227.31C596.8 227.02 597.39 226.78 597.99 226.57C598.59 226.37 599.21 226.2 599.83 226.07C600.45 225.95 601.08 225.86 601.71 225.81C602.35 225.77 602.98 225.77 603.61 225.8C603.36 225.51 603.09 225.22 602.8 224.96C602.51 224.7 602.2 224.47 601.87 224.25C601.55 224.04 601.2 223.84 600.85 223.68C600.5 223.51 600.13 223.37 599.76 223.26C599.38 223.15 602.44 222.24 604.78 225.91C604.78 225.91 608.53 226.35 608.97 226.78C608.97 226.78 607.18 222.83 604.89 221.11C604.89 221.11 608.36 221.81 609.94 227.12L613.58 228.56C613.58 228.56 611.49 223.22 609.56 221.53C609.56 221.53 612.98 222.79 614.48 229.03L617.81 230.95C617.81 230.95 616.36 226.2 614.62 223.87C614.62 223.87 617.54 225.73 618.75 231.54L620.83 233.09C620.83 233.09 619.7 229.64 619.32 228.68C618.95 227.72 619.14 227.52 619.14 227.52C619.49 227.97 619.82 228.43 620.11 228.92C620.4 229.41 620.65 229.92 620.87 230.44C621.09 230.96 621.28 231.5 621.42 232.05C621.57 232.6 621.68 233.15 621.75 233.72C621.82 234.28 625.76 237.15 626.03 236.93Z" />
	<path id="Layer" class="shp0" d="M914.09 159.15C914.09 159.15 901.67 133.39 885.84 146.08C885.84 146.08 882.44 147.23 882.59 150.81C882.59 150.81 883.91 150.13 884.84 152.89C884.93 153.13 885.03 153.37 885.13 153.61C885.23 153.85 885.34 154.09 885.46 154.32C885.57 154.55 885.69 154.78 885.82 155.01C885.95 155.23 886.09 155.45 886.23 155.67C886.42 155.96 886.64 156.24 886.87 156.49C887.1 156.75 887.36 156.99 887.63 157.2C887.9 157.42 888.19 157.61 888.5 157.78C888.8 157.95 889.12 158.1 889.45 158.21L889.45 158.21C889.45 158.21 896.26 163.6 909.23 159.93C909.23 159.93 912.86 160.55 913.46 160.11L909.34 156.9C909.34 156.9 907.08 160.04 903.95 160.32C903.95 160.32 909.32 157.13 908.74 156.4C908.62 156.25 906.49 154.8 906.49 154.8C906.49 154.8 902.59 160.23 897.7 160.5C897.7 160.5 904.61 157.58 905.68 154.24L902.25 152.26C902.25 152.26 898.41 158.2 892.85 158.73C892.85 158.73 899.97 155.41 901.48 151.87L897.89 150.37C897.89 150.37 894.02 156.1 889.41 156.5C889.41 156.5 897.24 151.84 897.04 150.09C897.04 150.09 893.66 148.89 892.61 149.01C892.61 149.01 889.75 153.05 887.04 153.05C887.04 153.05 891.94 149.38 891.64 148.79C891.64 148.79 886.83 148.41 884.28 149.54C884.85 149.26 885.44 149.01 886.04 148.8C886.64 148.6 887.25 148.43 887.87 148.3C888.49 148.18 889.12 148.09 889.76 148.05C890.39 148 891.03 148 891.66 148.04C891.41 147.74 891.14 147.46 890.85 147.2C890.56 146.94 890.25 146.7 889.92 146.48C889.6 146.27 889.25 146.08 888.9 145.91C888.55 145.74 888.18 145.6 887.81 145.49C887.44 145.38 890.5 144.47 892.83 148.14C892.83 148.14 896.58 148.59 897.03 149.02C897.03 149.02 895.23 145.06 892.94 143.35C892.94 143.35 896.4 144.05 897.99 149.39L901.64 150.83C901.64 150.83 899.54 145.48 897.61 143.79C897.61 143.79 901.03 145.06 902.52 151.29L905.86 153.22C905.86 153.22 904.4 148.47 902.66 146.13C902.66 146.13 905.59 147.99 906.79 153.8L908.87 155.35C908.87 155.35 907.75 151.9 907.37 150.94C906.99 149.98 907.18 149.79 907.18 149.79C907.54 150.24 907.86 150.7 908.15 151.19C908.44 151.68 908.69 152.19 908.91 152.71C909.13 153.23 909.32 153.77 909.46 154.32C909.61 154.86 909.72 155.42 909.79 155.99C909.86 156.55 913.86 159.39 914.09 159.15Z" />
	<path id="Layer" class="shp0" d="M953.79 286.61C953.79 286.61 941.37 260.83 925.52 273.53C925.52 273.53 922.11 274.68 922.27 278.26C922.27 278.26 923.59 277.58 924.52 280.33C924.61 280.58 924.7 280.82 924.8 281.06C924.9 281.3 925.01 281.54 925.13 281.77C925.24 282 925.37 282.23 925.49 282.46C925.62 282.68 925.76 282.9 925.9 283.12C926.09 283.41 926.3 283.69 926.54 283.94C926.77 284.2 927.03 284.44 927.3 284.65C927.57 284.87 927.86 285.06 928.17 285.23C928.47 285.4 928.79 285.55 929.11 285.66L929.11 285.66C929.11 285.66 935.93 291.06 948.91 287.38C948.91 287.38 952.52 288.01 953.13 287.56L948.98 284.36C948.98 284.36 946.73 287.5 943.59 287.77C943.59 287.77 948.96 284.59 948.38 283.86C948.26 283.71 946.13 282.26 946.13 282.26C946.13 282.26 942.23 287.68 937.34 287.97C937.34 287.97 944.25 285.03 945.32 281.7L941.93 279.7C941.93 279.7 938.09 285.65 932.54 286.17C932.54 286.17 939.65 282.86 941.17 279.31L937.57 277.81C937.57 277.81 933.71 283.53 929.09 283.95C929.09 283.95 936.93 279.28 936.73 277.52C936.73 277.52 933.35 276.33 932.3 276.45C932.3 276.45 929.43 280.48 926.72 280.48C926.72 280.48 931.63 276.81 931.33 276.22C931.33 276.22 926.51 275.85 923.97 276.97C924.53 276.69 925.12 276.44 925.72 276.24C926.32 276.03 926.94 275.87 927.56 275.74C928.18 275.61 928.81 275.53 929.45 275.48C930.08 275.44 930.72 275.43 931.35 275.47C931.1 275.17 930.83 274.89 930.54 274.63C930.25 274.37 929.94 274.13 929.61 273.92C929.28 273.7 928.94 273.51 928.59 273.34C928.23 273.18 927.87 273.04 927.49 272.93C927.12 272.81 930.18 271.9 932.51 275.58C932.51 275.58 936.27 276.02 936.71 276.45C936.71 276.45 934.92 272.5 932.63 270.77C932.63 270.77 936.09 271.48 937.68 276.81L941.32 278.26C941.32 278.26 939.22 272.9 937.3 271.22C937.3 271.22 940.72 272.48 942.2 278.73L945.54 280.64C945.54 280.64 944.09 275.9 942.35 273.56C942.35 273.56 945.27 275.42 946.48 281.24L948.56 282.74C948.56 282.74 947.44 279.29 947.06 278.33C946.69 277.37 946.87 277.18 946.87 277.18C947.23 277.63 947.55 278.09 947.84 278.58C948.13 279.07 948.39 279.57 948.61 280.1C948.83 280.62 949.01 281.16 949.16 281.71C949.3 282.25 949.41 282.81 949.48 283.37C949.55 283.94 953.56 286.83 953.79 286.61Z" />
	<path id="Layer" class="shp0" d="M496.58 621.95C487.04 621.95 479.32 621.09 479.32 620.02C479.32 618.95 487.04 618.09 496.58 618.09C506.12 618.09 513.84 618.95 513.84 620.02C513.84 621.09 506.12 621.95 496.58 621.95Z" />
	<path id="Layer" class="shp0" d="M383.46 589.16C373.92 589.16 366.2 588.3 366.2 587.23C366.2 586.17 373.92 585.31 383.46 585.31C393 585.31 400.72 586.17 400.72 587.23C400.72 588.3 393 589.16 383.46 589.16Z" />
	<path id="Layer" class="shp0" d="M582.81 643.72C573.27 643.72 565.55 642.86 565.55 641.79C565.55 640.73 573.27 639.87 582.81 639.87C592.35 639.87 600.06 640.73 600.06 641.79C600.06 642.86 592.35 643.72 582.81 643.72Z" />
	<path id="Layer" class="shp0" d="M1024.68 596.29C1015.14 596.29 1007.42 595.43 1007.42 594.37C1007.42 593.3 1015.14 592.44 1024.68 592.44C1034.22 592.44 1041.93 593.3 1041.93 594.37C1041.93 595.43 1034.22 596.29 1024.68 596.29Z" />
	<path id="Layer" class="shp0" d="M881.08 586.93C871.54 586.93 863.83 586.07 863.83 585.01C863.83 583.94 871.54 583.08 881.08 583.08C890.63 583.08 898.34 583.94 898.34 585.01C898.34 586.07 890.63 586.93 881.08 586.93Z" />
	<path id="Layer" class="shp0" d="M788.19 632.59C776.91 632.59 767.78 631.02 767.78 629.08C767.78 627.14 776.91 625.57 788.19 625.57C799.48 625.57 808.6 627.14 808.6 629.08C808.6 631.02 799.48 632.59 788.19 632.59Z" />
	<path id="Layer" class="shp9" d="M786.64 629.91C786.64 629.91 758.22 644.59 772.9 661.89C772.9 661.89 774.28 665.64 778.27 665.38C778.27 665.38 777.48 663.92 780.53 662.76C780.8 662.65 781.06 662.54 781.33 662.42C781.59 662.3 781.85 662.17 782.11 662.03C782.37 661.9 782.62 661.76 782.87 661.6C783.11 661.45 783.36 661.29 783.6 661.13C783.92 660.91 784.22 660.66 784.5 660.39C784.78 660.12 785.04 659.83 785.27 659.52C785.5 659.21 785.71 658.88 785.89 658.53C786.07 658.19 786.22 657.83 786.34 657.46L786.34 657.46C786.34 657.46 792.15 649.68 787.65 635.29C787.65 635.29 788.23 631.23 787.72 630.57L784.27 635.3C784.27 635.3 787.84 637.7 788.25 641.22C788.25 641.22 784.5 635.31 783.75 635.96C783.58 636.1 782.03 638.55 782.03 638.55C782.03 638.55 788.22 642.75 788.68 648.2C788.68 648.2 785.19 640.56 781.43 639.47L779.28 643.32C779.28 643.32 786.04 647.43 786.79 653.62C786.79 653.62 782.86 645.77 778.85 644.19L777.27 648.25C777.27 648.25 783.78 652.39 784.38 657.54C784.38 657.54 778.93 648.93 776.98 649.2C776.98 649.2 775.74 653.02 775.91 654.19C775.91 654.19 780.51 657.27 780.59 660.3C780.59 660.3 776.35 654.93 775.69 655.28C775.69 655.28 775.42 660.68 776.73 663.49C776.73 663.49 774.48 659.48 774.84 655.28C774.52 655.57 774.21 655.88 773.93 656.22C773.65 656.55 773.39 656.9 773.16 657.27C772.93 657.65 772.73 658.03 772.55 658.43C772.38 658.83 772.23 659.24 772.12 659.67C772 660.09 770.9 656.7 774.93 653.97C774.93 653.97 775.31 649.77 775.77 649.25C775.77 649.25 771.41 651.39 769.56 654C769.56 654 770.24 650.1 776.16 648.17L777.66 644.05C777.66 644.05 771.74 646.56 769.92 648.77C769.92 648.77 771.23 644.9 778.12 643.05L780.17 639.29C780.17 639.29 774.91 641.07 772.34 643.05C772.34 643.05 774.33 639.72 780.8 638.19L782.46 635.83C782.46 635.83 778.64 637.19 777.58 637.67C776.51 638.16 776.3 637.92 776.3 637.92C776.78 637.51 777.3 637.14 777.83 636.8C778.37 636.46 778.93 636.16 779.5 635.89C780.08 635.63 780.68 635.41 781.28 635.23C781.89 635.05 782.51 634.91 783.14 634.81C783.76 634.72 786.9 630.17 786.64 629.91Z" />
	<path id="Layer" class="shp11" d="M823.87 89.67C822.06 92.73 818.3 94.18 814.75 94.18C811.21 94.18 807.78 93.03 804.4 91.97C795.59 89.22 785.98 87.11 777.27 90.18C773.39 91.54 769.82 93.93 765.75 94.53C759.82 95.46 750.27 90.3 749.24 83.73C748.07 91.32 759.14 97.82 765.75 96.78C769.82 96.14 773.39 93.78 777.27 92.43C785.98 89.37 795.59 91.47 804.4 94.22C807.78 95.28 811.2 96.47 814.75 96.43C818.3 96.38 822.06 94.99 823.87 91.93C824.1 91.51 824.3 91.08 824.46 90.64C824.62 90.19 824.75 89.73 824.84 89.27C824.93 88.8 824.98 88.33 824.99 87.86C825.01 87.38 824.98 86.91 824.92 86.44C824.89 86.72 824.84 87.01 824.79 87.28C824.73 87.56 824.65 87.84 824.56 88.11C824.48 88.38 824.37 88.65 824.26 88.91C824.14 89.17 824.01 89.43 823.87 89.67L823.87 89.67Z" />
	<path id="Layer" class="shp9" d="M1160.96 495.45C1160.96 495.45 1165.41 501.27 1158.91 510.06C1152.4 518.85 1147.04 526.27 1149.2 531.75C1149.2 531.75 1159.02 515.43 1167 515.19C1174.99 514.96 1169.74 505.26 1160.96 495.45Z" />
	<path id="Layer" class="shp9" d="M1140.7 503.94C1140.7 503.94 1136.25 509.75 1142.76 518.54C1149.27 527.33 1154.63 534.75 1152.46 540.23C1152.46 540.23 1142.65 523.91 1134.65 523.68C1126.66 523.44 1131.95 513.75 1140.7 503.94Z" />
	<path id="Layer" class="shp0" d="M1152.46 584.75C1126.73 584.75 1105.93 581.56 1105.93 577.61C1105.93 573.67 1126.73 570.47 1152.46 570.47C1178.2 570.47 1199 573.67 1199 577.61C1199 581.56 1178.2 584.75 1152.46 584.75Z" />
	<path id="Layer" class="shp12" d="M1176.41 532.38L1176.19 534.2L1175.87 536.77L1175.75 537.84L1175.43 540.41L1175.3 541.48L1174.99 544.04L1171.42 573.24C1171.11 575.84 1166.85 577.88 1161.71 577.88L1143.21 577.88C1138.07 577.88 1133.82 575.84 1133.5 573.24L1129.93 544.04L1129.62 541.48L1129.49 540.41L1129.17 537.84L1129.04 536.77L1128.73 534.2L1128.5 532.38C1128.33 530.88 1130.63 529.67 1133.54 529.67L1171.39 529.67C1174.29 529.67 1176.59 530.9 1176.41 532.38Z" />
	<path id="Layer" class="shp13" d="M1176.19 534.2L1175.88 536.77L1129.05 536.77L1128.73 534.2L1176.19 534.2L1176.19 534.2Z" />
	<path id="Layer" class="shp13" d="M1175.75 537.84L1175.44 540.41L1129.49 540.41L1129.17 537.84L1175.75 537.84L1175.75 537.84Z" />
	<path id="Layer" class="shp13" d="M1175.3 541.48L1174.99 544.05L1129.93 544.05L1129.62 541.48L1175.3 541.48L1175.3 541.48Z" />
</svg>